<svg xmlns="http://www.w3.org/2000/svg" width="1249.276" height="274.597" viewBox="0 0 1249.276 274.597">
  <g id="BG5" transform="translate(-435.921 -1382.397)">
    <path id="Path_3344" data-name="Path 3344" d="M497.463,1389.126c-8.807,10.008-7.034,29.544,8.723,30.669s28.418-18.289,23.635-28.7S506.27,1379.118,497.463,1389.126Z" transform="translate(-39)" fill="#2d7527"/>
    <path id="Path_3345" data-name="Path 3345" d="M494.261,1385.042c-3.461,3.933-2.764,11.611,3.428,12.053s11.168-7.187,9.289-11.279S497.722,1381.108,494.261,1385.042Z" transform="translate(-56.268 79.365)" fill="#2d7527"/>
    <path id="Path_3346" data-name="Path 3346" d="M501.657,1395.985c-15.81,20.209-12.627,59.656,15.658,61.929s51.015-36.93,42.428-57.953S517.468,1375.776,501.657,1395.985Z" transform="translate(-769.03 2255.256) rotate(-101)" fill="#2d7527"/>
    <path id="Path_3349" data-name="Path 3349" d="M417.119,1819.972c-2.207,13.38,10.039,53.966,53.229,37.7,42.467-17.891,7.305-64.58-18.069-64.58C428.422,1793.522,419.326,1806.593,417.119,1819.972Z" transform="translate(750.214 -204.467)" fill="#2d7527"/>
    <path id="Path_3350" data-name="Path 3350" d="M414.672,1808.563c-1.688,14.155,10.492,34.041,33.254,28.855s19.386-33.578.014-43.918S416.361,1794.408,414.672,1808.563Z" transform="translate(2399.89 2915.166) rotate(150)" fill="#2d7527"/>
    <path id="Path_3351" data-name="Path 3351" d="M417.041,1799.158c-.235,4.314,2.253,15.875,14.483,13.226s9.1-15.755.007-20.606S417.276,1794.843,417.041,1799.158Z" transform="translate(2941.48 2788.643) rotate(150)" fill="#2d7527"/>
  </g>
</svg>
