<svg xmlns="http://www.w3.org/2000/svg" width="1921" height="45.623" viewBox="0 0 1921 45.623">
  <g id="border_" data-name="border " transform="translate(0.5 0.5)">
    <g id="Group_34" data-name="Group 34" transform="translate(0 0)">
      <path id="Path_479" data-name="Path 479" d="M1.44,1.57c26.419,0,26.419,26.688,52.838,26.688S80.751,1.57,107.17,1.57s26.419,26.688,52.838,26.688S186.427,1.57,212.846,1.57s26.419,26.688,52.838,26.688S292.1,1.57,318.522,1.57s26.419,26.688,52.838,26.688S397.78,1.57,424.2,1.57s26.419,26.688,52.838,26.688S503.456,1.57,529.875,1.57s26.419,26.688,52.838,26.688S609.132,1.57,635.551,1.57s26.419,26.688,52.838,26.688S714.808,1.57,741.227,1.57s26.419,26.688,52.892,26.688S820.538,1.57,846.957,1.57,873.376,28.258,899.8,28.258,926.214,1.57,952.633,1.57s26.419,26.688,52.838,26.688S1031.891,1.57,1058.31,1.57s26.419,26.688,52.892,26.688S1137.621,1.57,1164.04,1.57s26.419,26.688,52.838,26.688S1243.3,1.57,1269.716,1.57s26.419,26.688,52.838,26.688S1348.973,1.57,1375.392,1.57s26.419,26.688,52.892,26.688S1454.7,1.57,1481.122,1.57s26.419,26.688,52.892,26.688S1560.433,1.57,1586.906,1.57s26.419,26.688,52.892,26.688S1666.217,1.57,1692.636,1.57s26.419,26.688,52.892,26.688S1771.947,1.57,1798.419,1.57s26.419,26.688,52.892,26.688S1877.73,1.57,1904.2,1.57" transform="translate(6.292 6.86)" fill="none" stroke="#efaa25" stroke-linecap="round" stroke-linejoin="round" stroke-width="5"/>
      <g id="Group_32" data-name="Group 32" transform="translate(0 27.761)">
        <circle id="Ellipse_39" data-name="Ellipse 39" cx="8.43" cy="8.43" r="8.43" transform="translate(1268.276)" fill="#efaa25" stroke="#efaa25" stroke-width="1"/>
        <circle id="Ellipse_40" data-name="Ellipse 40" cx="8.43" cy="8.43" r="8.43" transform="translate(1162.6)" fill="#efaa25" stroke="#efaa25" stroke-width="1"/>
        <circle id="Ellipse_41" data-name="Ellipse 41" cx="8.43" cy="8.43" r="8.43" transform="translate(1056.924)" fill="#efaa25" stroke="#efaa25" stroke-width="1"/>
        <circle id="Ellipse_42" data-name="Ellipse 42" cx="8.43" cy="8.43" r="8.43" transform="translate(951.247)" fill="#efaa25" stroke="#efaa25" stroke-width="1"/>
        <circle id="Ellipse_43" data-name="Ellipse 43" cx="8.43" cy="8.43" r="8.43" transform="translate(845.517)" fill="#efaa25" stroke="#efaa25" stroke-width="1"/>
        <circle id="Ellipse_44" data-name="Ellipse 44" cx="8.43" cy="8.43" r="8.43" transform="translate(739.841)" fill="#efaa25" stroke="#efaa25" stroke-width="1"/>
        <circle id="Ellipse_45" data-name="Ellipse 45" cx="8.43" cy="8.43" r="8.43" transform="translate(634.165)" fill="#efaa25" stroke="#efaa25" stroke-width="1"/>
        <circle id="Ellipse_46" data-name="Ellipse 46" cx="8.43" cy="8.43" r="8.43" transform="translate(528.435)" fill="#efaa25" stroke="#efaa25" stroke-width="1"/>
        <circle id="Ellipse_47" data-name="Ellipse 47" cx="8.43" cy="8.43" r="8.43" transform="translate(422.759)" fill="#efaa25" stroke="#efaa25" stroke-width="1"/>
        <circle id="Ellipse_48" data-name="Ellipse 48" cx="8.43" cy="8.43" r="8.43" transform="translate(317.082)" fill="#efaa25" stroke="#efaa25" stroke-width="1"/>
        <circle id="Ellipse_49" data-name="Ellipse 49" cx="8.43" cy="8.43" r="8.43" transform="translate(211.406)" fill="#efaa25" stroke="#efaa25" stroke-width="1"/>
        <circle id="Ellipse_50" data-name="Ellipse 50" cx="8.43" cy="8.43" r="8.43" transform="translate(105.676)" fill="#efaa25" stroke="#efaa25" stroke-width="1"/>
        <circle id="Ellipse_51" data-name="Ellipse 51" cx="8.43" cy="8.43" r="8.43" fill="#efaa25" stroke="#efaa25" stroke-width="1"/>
        <circle id="Ellipse_52" data-name="Ellipse 52" cx="8.43" cy="8.43" r="8.43" transform="translate(1374.113)" fill="#efaa25" stroke="#efaa25" stroke-width="1"/>
        <circle id="Ellipse_53" data-name="Ellipse 53" cx="8.43" cy="8.43" r="8.43" transform="translate(1479.897)" fill="#efaa25" stroke="#efaa25" stroke-width="1"/>
        <circle id="Ellipse_54" data-name="Ellipse 54" cx="8.43" cy="8.43" r="8.43" transform="translate(1585.734)" fill="#efaa25" stroke="#efaa25" stroke-width="1"/>
        <circle id="Ellipse_55" data-name="Ellipse 55" cx="8.43" cy="8.43" r="8.43" transform="translate(1691.518)" fill="#efaa25" stroke="#efaa25" stroke-width="1"/>
        <circle id="Ellipse_56" data-name="Ellipse 56" cx="8.43" cy="8.43" r="8.43" transform="translate(1797.355)" fill="#efaa25" stroke="#efaa25" stroke-width="1"/>
        <circle id="Ellipse_57" data-name="Ellipse 57" cx="8.43" cy="8.43" r="8.43" transform="translate(1903.139)" fill="#efaa25" stroke="#efaa25" stroke-width="1"/>
      </g>
      <g id="Group_33" data-name="Group 33" transform="translate(52.999)">
        <circle id="Ellipse_58" data-name="Ellipse 58" cx="8.43" cy="8.43" r="8.43" transform="translate(1268.33)" fill="#efaa25" stroke="#efaa25" stroke-width="1"/>
        <circle id="Ellipse_59" data-name="Ellipse 59" cx="8.43" cy="8.43" r="8.43" transform="translate(1162.6)" fill="#efaa25" stroke="#efaa25" stroke-width="1"/>
        <circle id="Ellipse_60" data-name="Ellipse 60" cx="8.43" cy="8.43" r="8.43" transform="translate(1056.924)" fill="#efaa25" stroke="#efaa25" stroke-width="1"/>
        <circle id="Ellipse_61" data-name="Ellipse 61" cx="8.43" cy="8.43" r="8.43" transform="translate(951.247)" fill="#efaa25" stroke="#efaa25" stroke-width="1"/>
        <circle id="Ellipse_62" data-name="Ellipse 62" cx="8.43" cy="8.43" r="8.43" transform="translate(845.571)" fill="#efaa25" stroke="#efaa25" stroke-width="1"/>
        <circle id="Ellipse_63" data-name="Ellipse 63" cx="8.43" cy="8.43" r="8.43" transform="translate(739.841)" fill="#efaa25" stroke="#efaa25" stroke-width="1"/>
        <circle id="Ellipse_64" data-name="Ellipse 64" cx="8.43" cy="8.43" r="8.43" transform="translate(634.165)" fill="#efaa25" stroke="#efaa25" stroke-width="1"/>
        <circle id="Ellipse_65" data-name="Ellipse 65" cx="8.43" cy="8.43" r="8.43" transform="translate(528.489)" fill="#efaa25" stroke="#efaa25" stroke-width="1"/>
        <circle id="Ellipse_66" data-name="Ellipse 66" cx="8.43" cy="8.43" r="8.43" transform="translate(422.812)" fill="#efaa25" stroke="#efaa25" stroke-width="1"/>
        <circle id="Ellipse_67" data-name="Ellipse 67" cx="8.43" cy="8.43" r="8.43" transform="translate(317.082)" fill="#efaa25" stroke="#efaa25" stroke-width="1"/>
        <circle id="Ellipse_68" data-name="Ellipse 68" cx="8.43" cy="8.43" r="8.43" transform="translate(211.406)" fill="#efaa25" stroke="#efaa25" stroke-width="1"/>
        <circle id="Ellipse_69" data-name="Ellipse 69" cx="8.43" cy="8.43" r="8.43" transform="translate(105.73)" fill="#efaa25" stroke="#efaa25" stroke-width="1"/>
        <circle id="Ellipse_70" data-name="Ellipse 70" cx="8.43" cy="8.43" r="8.43" fill="#efaa25" stroke="#efaa25" stroke-width="1"/>
        <circle id="Ellipse_71" data-name="Ellipse 71" cx="8.43" cy="8.43" r="8.43" transform="translate(1374.113)" fill="#efaa25" stroke="#efaa25" stroke-width="1"/>
        <circle id="Ellipse_72" data-name="Ellipse 72" cx="8.43" cy="8.43" r="8.43" transform="translate(1479.951)" fill="#efaa25" stroke="#efaa25" stroke-width="1"/>
        <circle id="Ellipse_73" data-name="Ellipse 73" cx="8.43" cy="8.43" r="8.43" transform="translate(1585.734)" fill="#efaa25" stroke="#efaa25" stroke-width="1"/>
        <circle id="Ellipse_74" data-name="Ellipse 74" cx="8.43" cy="8.43" r="8.43" transform="translate(1691.572)" fill="#efaa25" stroke="#efaa25" stroke-width="1"/>
        <circle id="Ellipse_75" data-name="Ellipse 75" cx="8.43" cy="8.43" r="8.43" transform="translate(1797.355)" fill="#efaa25" stroke="#efaa25" stroke-width="1"/>
      </g>
    </g>
  </g>
</svg>
