<svg xmlns="http://www.w3.org/2000/svg" width="1922.925" height="377.716" viewBox="0 0 1922.925 377.716">
  <g id="Group_964" data-name="Group 964" transform="translate(0.501 -1290.265)">
    <path id="Subtraction_3" data-name="Subtraction 3" d="M-10246.41,964.448V711.956a80.709,80.709,0,0,0,5.014,6.375,117.62,117.62,0,0,0,14.328,14.025,96.485,96.485,0,0,0,22.569,14.025,74.138,74.138,0,0,0,29.741,6.375c43.948,0,64.913-22.878,104.471-70.472a200.387,200.387,0,0,1,18.362-19.422,143.034,143.034,0,0,1,19.733-15.335c14.26-9.08,28.263-13.684,41.617-13.684a56.324,56.324,0,0,1,14.551,1.9,60.081,60.081,0,0,1,14.341,5.972,76.421,76.421,0,0,1,13.965,10.436,109.676,109.676,0,0,1,13.43,15.3,268.324,268.324,0,0,0,21.493,26.065,129.114,129.114,0,0,0,18.356,16.266,64.2,64.2,0,0,0,15.618,8.366,39.537,39.537,0,0,0,13.278,2.367,42.385,42.385,0,0,0,16.562-3.612,33.35,33.35,0,0,0,12.252-9,38.256,38.256,0,0,0,7.813-14.39,38.3,38.3,0,0,0,.929-17.286,45.789,45.789,0,0,0-8.013-18.67,63.6,63.6,0,0,1-10.534-24.625c-1.736-9.444-.73-18.152,2.908-25.183a32.594,32.594,0,0,1,15.3-14.359c7.77-3.755,17.786-5.66,29.772-5.66,5.473,0,11.389,1.3,18.089,3.97a122.409,122.409,0,0,1,20.092,10.659c14.011,8.917,29.2,21.038,45.288,33.871l.012.009c41.405,33.036,88.334,70.479,136.166,70.479a88.03,88.03,0,0,0,15.79-1.417,87.471,87.471,0,0,0,15.8-4.474c12.29-4.757,24.133-9.691,35.585-14.463,19.422-8.092,37.767-15.736,55.511-21.364a219.177,219.177,0,0,1,26.2-6.726,138.709,138.709,0,0,1,25.6-2.506,108.1,108.1,0,0,1,51.085,12.583,133.947,133.947,0,0,1,12.913,7.71,161.557,161.557,0,0,1,13.053,9.839,229.256,229.256,0,0,1,26.7,26.672c5.369,6.642,11,11.617,16.743,14.787a30.133,30.133,0,0,0,14.582,4.072,21.777,21.777,0,0,0,11.217-2.952,13.147,13.147,0,0,0,5.676-6.015,23.811,23.811,0,0,0,1.486-6.761,21.752,21.752,0,0,0-.715-7.457,18.092,18.092,0,0,0-3.729-6.993,20.489,20.489,0,0,0-7.554-5.37,18.574,18.574,0,0,1-8.429-7.858,22.891,22.891,0,0,1-3.1-12.14,19.687,19.687,0,0,1,4.038-11.354c2.869-3.748,7.118-6.623,12.63-8.545a25.648,25.648,0,0,1,8.431-1.292c6.53,0,14.369,1.84,23.3,5.47a157.641,157.641,0,0,1,26.626,14.309,223.825,223.825,0,0,1,26,19.994,177.464,177.464,0,0,1,21.42,22.525,33,33,0,0,0,6.6,6.391,33.168,33.168,0,0,0,7.673,4.113A49.539,49.539,0,0,0-9120,730.35c10.57,0,22.051-2.205,32.181-4.15l1-.192c10.591-2.035,20.594-3.957,29.386-3.957a39.633,39.633,0,0,1,10.682,1.277,21.9,21.9,0,0,1,8.615,4.464,30.73,30.73,0,0,1,8.014,11.642,26.112,26.112,0,0,1,1.59,6.748,24.332,24.332,0,0,1-.336,7.006,27.687,27.687,0,0,1-7.959,14.28c-4.731,4.743-11.311,8.7-19.556,11.76a33.575,33.575,0,0,0-9.853,5.59,27.1,27.1,0,0,0-6.376,7.629,26.424,26.424,0,0,0-3.043,8.914,28.749,28.749,0,0,0,.15,9.444,33.475,33.475,0,0,0,12.187,20.04c7.232,5.811,16.673,8.882,27.3,8.882.257,0,.5,0,.735,0a86.734,86.734,0,0,0,14.911-1.433,67.822,67.822,0,0,0,12.773-3.7,59.535,59.535,0,0,0,10.82-5.714,59.713,59.713,0,0,0,9.046-7.466c9.821-9.864,17.037-23.661,22.06-42.178a111.16,111.16,0,0,1,10.342-24.326,143.346,143.346,0,0,1,9.274-14.512,136.365,136.365,0,0,1,12.17-14.511,115.1,115.1,0,0,1,33.506-24.312,105.438,105.438,0,0,1,21.575-7.45,112.522,112.522,0,0,1,24.949-2.745,139.361,139.361,0,0,1,33.184,4.226,200.191,200.191,0,0,1,38.036,13.89c53.271,25.407,91.329,37.757,116.346,37.757a51.471,51.471,0,0,0,17.464-2.682,32.209,32.209,0,0,0,6.553-3.231,28.5,28.5,0,0,0,5.248-4.384c5.769-6.143,9.095-15.125,10.168-27.46,1.112-12.791,4.03-22.735,8.673-29.555,4.745-6.97,11.184-10.5,19.135-10.5,5.568,0,11.881,1.758,18.761,5.225,7.139,3.6,14.973,9.077,23.284,16.289,9.919,8.606,21.688,18.333,33.771,25.224a86.152,86.152,0,0,0,17.265,7.671,60.038,60.038,0,0,0,17.988,2.817,59.1,59.1,0,0,0,16.241-2.329,77.266,77.266,0,0,0,17.251-7.475A122.25,122.25,0,0,0-8436,703.494a208.977,208.977,0,0,0,19.941-19.971,46.281,46.281,0,0,1,16.265-12.742,43.1,43.1,0,0,1,18.056-3.827c23.577,0,47.623,17.223,57.248,33.875-.729,14.053-.7,22.483-.544,69.264v.453c.118,35.1.316,93.841.316,193.575Zm1202.5-78.855c-10.962.2-19.607,3.086-25.7,8.584a28.193,28.193,0,0,0-6.393,8.512,34.949,34.949,0,0,0-3.07,9.784c-.6,3.612-.094,8.82,1.343,13.931a43.574,43.574,0,0,0,8.413,16.231,31.909,31.909,0,0,0,10.261,8.1,32.639,32.639,0,0,0,14.529,3.224,53.5,53.5,0,0,0,18.683-3.788c8.041-3.387,13.73-7.986,16.911-13.669a22.772,22.772,0,0,0,2.728-8.3,26.764,26.764,0,0,0-.381-8.669c-1.653-8.183-6.858-16.726-14.28-23.437a46.434,46.434,0,0,0-11.3-7.624A27.976,27.976,0,0,0-9043.915,885.592Zm-90.746-48.563a24.629,24.629,0,0,0-9.259,1.819,30.4,30.4,0,0,0-9.226,6,21.007,21.007,0,0,0-6.522,10.627,17.489,17.489,0,0,0-.383,5.479,19.051,19.051,0,0,0,1.264,5.306,25.514,25.514,0,0,0,10.026,11.793,30.254,30.254,0,0,0,7.7,3.554,30.643,30.643,0,0,0,8.834,1.3c.342,0,.678-.005,1.026-.016,12.253-.409,17.958-5.424,20.587-9.559a18.542,18.542,0,0,0,2.818-9.678,25.343,25.343,0,0,0-2.124-10.443,26.981,26.981,0,0,0-9.544-11.278,28.407,28.407,0,0,0-7.126-3.568A25.541,25.541,0,0,0-9134.661,837.029ZM-9730.833,731.2c-6.8,0-12.737,1.535-17.169,4.438a25.573,25.573,0,0,0-5.744,5.155,27.5,27.5,0,0,0-3.947,6.477,33.8,33.8,0,0,0-2.607,15.273,38.38,38.38,0,0,0,5.416,17.672,35.824,35.824,0,0,0,5.97,7.467,34.4,34.4,0,0,0,8.091,5.735,41.625,41.625,0,0,0,9.916,3.506,49.818,49.818,0,0,0,10.747,1.153h.008a49.783,49.783,0,0,0,17.353-3.059,39.018,39.018,0,0,0,7.521-3.765,30.505,30.505,0,0,0,6.13-5.2,24.523,24.523,0,0,0,5.111-8.786,26.046,26.046,0,0,0,1.018-11.036,31.049,31.049,0,0,0-5.626-14.478,43.444,43.444,0,0,0-11.564-11.041,57.848,57.848,0,0,0-14.921-7.039A54.177,54.177,0,0,0-9730.833,731.2Zm-71.284,27.528a8.314,8.314,0,0,0-6.3,2.645,8.645,8.645,0,0,0-1.535,8.555,5.515,5.515,0,0,0,4.963,3.5c.159.012.328.018.517.018a8.139,8.139,0,0,0,4.405-1.374,11.005,11.005,0,0,0,3.247-3.3c1.5-2.334,1.925-4.872,1.119-6.625a5.459,5.459,0,0,0-2.559-2.543A8.536,8.536,0,0,0-9802.117,758.728Zm1225.246-30.453c-2.7,0-5.381,1.187-7.961,3.529-3.444,3.125-4.608,6.745-3.277,10.194a11.37,11.37,0,0,0,4.946,5.474,16.128,16.128,0,0,0,8.1,2.189c.176,0,.349,0,.527-.008,4.959-.166,7.329-2.449,8.444-4.334a10.025,10.025,0,0,0,1.313-4.994,9.705,9.705,0,0,0-.9-4.309,16.575,16.575,0,0,0-4.014-4.876A11.5,11.5,0,0,0-8576.871,728.274Zm-1195.048-48.911a23.608,23.608,0,0,0-8.716,1.65,19.07,19.07,0,0,0-7.312,5.08,21.841,21.841,0,0,0-4.929,10.538,20.611,20.611,0,0,0,1.022,11.232,14.127,14.127,0,0,0,4.6,6.076,14.921,14.921,0,0,0,8.025,2.824c.437.031.879.046,1.314.046a19.2,19.2,0,0,0,5.88-.94,22.518,22.518,0,0,0,5.33-2.556,28.042,28.042,0,0,0,8.26-8.39,24.754,24.754,0,0,0,3.591-8.788,13.557,13.557,0,0,0-.74-8.074,13.894,13.894,0,0,0-6.51-6.47A21.711,21.711,0,0,0-9771.919,679.363Z" transform="translate(10246.409 703.034)" fill="none" stroke="#f6b73e" stroke-width="1"/>
  </g>
</svg>
