<svg xmlns="http://www.w3.org/2000/svg" id="Layer_2" data-name="Layer 2" viewBox="0 0 810.93 155.37">
	<defs>
		<style>
			.cls-1 {
			fill: #f5b73e;
			stroke: #f5b73e;
			}
		</style>
	</defs>
	<g id="Layer_1-2" data-name="Layer 1">
		<path id="Subtraction_3" data-name="Subtraction 3" class="cls-1" d="M.41,52.86c.66.93,1.36,1.83,2.11,2.69,1.84,2.14,3.86,4.12,6.04,5.91,2.88,2.4,6.08,4.39,9.51,5.91,3.95,1.75,8.22,2.67,12.54,2.69,18.52,0,27.36-9.64,44.03-29.7,2.39-2.9,4.98-5.63,7.74-8.19,2.58-2.39,5.36-4.56,8.32-6.46,6.01-3.83,11.91-5.77,17.54-5.77,2.07,0,4.13.27,6.13.8,2.12.57,4.15,1.42,6.04,2.52,2.12,1.24,4.1,2.71,5.89,4.4,2.08,1.97,3.98,4.13,5.66,6.45,2.79,3.85,5.81,7.52,9.06,10.99,2.36,2.53,4.95,4.82,7.74,6.86,2.02,1.47,4.24,2.66,6.58,3.53,1.79.65,3.69.99,5.6,1,2.41-.03,4.78-.55,6.98-1.52,1.99-.85,3.76-2.15,5.16-3.79,1.52-1.76,2.65-3.83,3.29-6.07.68-2.37.82-4.86.39-7.29-.52-2.84-1.68-5.53-3.38-7.87-2.2-3.11-3.71-6.64-4.44-10.38-.73-3.98-.31-7.65,1.23-10.61,1.42-2.67,3.69-4.8,6.45-6.05,3.27-1.58,7.5-2.39,12.55-2.39,2.31,0,4.8.55,7.62,1.67,2.96,1.23,5.79,2.74,8.47,4.49,5.91,3.76,12.31,8.87,19.09,14.28h0c17.45,13.93,37.23,29.71,57.39,29.71,2.23,0,4.46-.2,6.66-.6,2.27-.42,4.5-1.05,6.66-1.89,5.18-2.01,10.17-4.08,15-6.1,8.19-3.41,15.92-6.63,23.4-9,3.62-1.17,7.31-2.12,11.04-2.84,3.56-.69,7.17-1.04,10.79-1.06,7.5-.03,14.9,1.79,21.53,5.3,1.87.98,3.69,2.07,5.44,3.25,1.9,1.29,3.74,2.67,5.5,4.15,4.05,3.43,7.82,7.19,11.25,11.24,2.26,2.8,4.64,4.9,7.06,6.23,1.87,1.09,3.98,1.68,6.15,1.72,1.66.02,3.29-.41,4.73-1.24,1.05-.57,1.89-1.45,2.39-2.54.35-.91.56-1.87.63-2.85.08-1.06-.02-2.12-.3-3.14-.3-1.09-.84-2.09-1.57-2.95-.87-.99-1.96-1.76-3.18-2.26-1.51-.7-2.75-1.86-3.55-3.31-.9-1.55-1.36-3.32-1.31-5.12.05-1.73.65-3.41,1.7-4.79,1.21-1.58,3-2.79,5.32-3.6,1.15-.38,2.35-.56,3.55-.54,2.75,0,6.06.78,9.82,2.31,3.93,1.65,7.68,3.67,11.22,6.03,3.85,2.54,7.52,5.35,10.96,8.43,3.28,2.89,6.3,6.07,9.03,9.49.8,1.02,1.73,1.93,2.78,2.69,1,.72,2.08,1.3,3.23,1.73,2.4.86,4.94,1.26,7.49,1.2,4.46,0,9.29-.93,13.56-1.75l.42-.08c4.46-.86,8.68-1.67,12.39-1.67,1.52-.03,3.03.16,4.5.54,1.34.35,2.58.99,3.63,1.88,1.49,1.35,2.65,3.03,3.38,4.91.35.91.57,1.87.67,2.84.1.99.05,1.98-.14,2.95-.49,2.3-1.66,4.4-3.35,6.02-1.99,2-4.77,3.67-8.24,4.96-1.51.54-2.91,1.34-4.15,2.36-1.09.9-2,1.99-2.69,3.22-.65,1.17-1.08,2.44-1.28,3.76-.2,1.32-.18,2.67.06,3.98.64,3.34,2.46,6.34,5.14,8.45,3.05,2.45,7.03,3.74,11.51,3.74h.31c2.11-.02,4.21-.22,6.29-.6,1.84-.34,3.64-.86,5.38-1.56,1.6-.64,3.13-1.45,4.56-2.41,1.37-.92,2.65-1.98,3.81-3.15,4.14-4.16,7.18-9.97,9.3-17.78,1.04-3.58,2.5-7.02,4.36-10.25,1.18-2.12,2.48-4.16,3.91-6.12,1.57-2.16,3.28-4.2,5.13-6.12,4.05-4.24,8.83-7.71,14.12-10.25,2.91-1.37,5.96-2.43,9.09-3.14,3.45-.78,6.98-1.16,10.52-1.16,4.72.03,9.41.63,13.99,1.78,5.53,1.4,10.9,3.37,16.03,5.85,22.45,10.71,38.5,15.91,49.04,15.91,2.5.05,4.99-.33,7.36-1.13.97-.35,1.9-.8,2.76-1.36.81-.52,1.55-1.15,2.21-1.85,2.43-2.59,3.83-6.38,4.29-11.57.47-5.39,1.7-9.58,3.66-12.46,2-2.94,4.71-4.43,8.07-4.43,2.35,0,5.01.74,7.91,2.2,3.01,1.52,6.31,3.83,9.81,6.87,4.18,3.63,9.14,7.73,14.23,10.63,2.3,1.34,4.74,2.43,7.28,3.23,2.45.78,5.01,1.18,7.58,1.19,2.32,0,4.62-.34,6.85-.98,2.54-.75,4.98-1.81,7.27-3.15,2.77-1.63,5.38-3.52,7.79-5.64,2.99-2.61,5.8-5.43,8.41-8.42,1.85-2.28,4.19-4.12,6.86-5.37,2.39-1.08,4.99-1.63,7.61-1.61,9.94,0,20.07,7.26,24.13,14.28M507.26,126.05c-4.62.08-8.26,1.3-10.83,3.62-1.12,1.01-2.03,2.23-2.69,3.59-.63,1.3-1.07,2.69-1.29,4.12-.25,1.52-.04,3.72.57,5.87.68,2.51,1.89,4.84,3.55,6.84,1.19,1.42,2.66,2.59,4.32,3.41,1.91.92,4.01,1.38,6.12,1.36,2.7-.06,5.37-.6,7.87-1.6,3.39-1.43,5.79-3.37,7.13-5.76.61-1.08,1-2.27,1.15-3.5.15-1.22.09-2.45-.16-3.65-.7-3.45-2.89-7.05-6.02-9.88-1.42-1.3-3.03-2.38-4.76-3.21-1.54-.76-3.23-1.18-4.95-1.21h0ZM469.01,105.58c-1.34,0-2.66.26-3.9.77-1.44.6-2.76,1.46-3.89,2.53-1.35,1.18-2.31,2.74-2.75,4.48-.17.76-.23,1.54-.16,2.31.07.77.25,1.52.53,2.24.86,2.05,2.34,3.79,4.23,4.97,1.01.65,2.1,1.15,3.25,1.5,1.21.36,2.46.55,3.72.55.14,0,.29,0,.43,0,5.16-.17,7.57-2.29,8.68-4.03.77-1.22,1.18-2.64,1.19-4.08.02-1.51-.29-3.01-.9-4.4-.87-1.93-2.27-3.57-4.02-4.75-.93-.64-1.94-1.15-3-1.5-1.1-.37-2.25-.56-3.4-.56h0ZM217.72,60.97c-2.87,0-5.37.65-7.24,1.87-.91.6-1.73,1.33-2.42,2.17-.68.83-1.24,1.75-1.66,2.73-.86,2.03-1.24,4.24-1.1,6.44.14,2.63.93,5.19,2.28,7.45.69,1.16,1.54,2.22,2.52,3.15,1.01.97,2.16,1.78,3.41,2.42,1.33.67,2.73,1.16,4.18,1.48,1.49.33,3.01.49,4.53.49h0c2.5,0,4.97-.43,7.31-1.29,1.11-.41,2.17-.95,3.17-1.59.95-.61,1.82-1.35,2.58-2.19.97-1.07,1.7-2.33,2.15-3.7.48-1.5.62-3.09.43-4.65-.26-2.2-1.08-4.3-2.37-6.1-1.32-1.84-2.98-3.42-4.87-4.65-1.94-1.28-4.06-2.28-6.29-2.97-2.14-.67-4.37-1.02-6.62-1.04ZM187.68,72.58c-1-.03-1.97.38-2.66,1.11-.85,1-1.1,2.38-.65,3.61.34.87,1.16,1.45,2.09,1.48.07,0,.14,0,.22,0,.66,0,1.31-.21,1.86-.58.55-.36,1.02-.84,1.37-1.39.63-.98.81-2.05.47-2.79-.23-.47-.61-.85-1.08-1.07-.51-.25-1.06-.38-1.63-.37ZM704.12,59.74c-1.14,0-2.27.5-3.36,1.49-1.45,1.32-1.94,2.84-1.38,4.3.42.98,1.15,1.79,2.08,2.31,1.04.6,2.21.92,3.41.92.07,0,.15,0,.22,0,2.09-.07,3.09-1.03,3.56-1.83.37-.64.56-1.37.55-2.1.01-.63-.12-1.25-.38-1.82-.43-.79-1-1.48-1.69-2.06-.84-.74-1.91-1.17-3.03-1.21h0ZM200.41,39.12c-1.26,0-2.5.23-3.67.7-1.18.46-2.24,1.19-3.08,2.14-1.08,1.27-1.8,2.8-2.08,4.44-.3,1.59-.15,3.23.43,4.73.4,1.02,1.07,1.9,1.94,2.56.99.72,2.16,1.13,3.38,1.19.18.01.37.02.55.02.84,0,1.68-.14,2.48-.4.79-.26,1.55-.62,2.25-1.08,1.4-.92,2.58-2.12,3.48-3.54.74-1.13,1.25-2.38,1.51-3.7.25-1.14.14-2.33-.31-3.4-.58-1.19-1.55-2.16-2.74-2.73-1.29-.63-2.7-.95-4.14-.94h0Z" className="fill-blue-900 stroke-yellow-400" strokeWidth="1.5" />
	</g>
</svg>
