<svg xmlns:inkscape="http://www.inkscape.org/namespaces/inkscape" xmlns:sodipodi="http://sodipodi.sourceforge.net/DTD/sodipodi-0.dtd" xmlns="http://www.w3.org/2000/svg" xmlns:svg="http://www.w3.org/2000/svg" version="1.1" width="250.27557pt" height="250.88977pt" id="svg17" viewBox="0 0 595.27557 841.88977" sodipodi:docname="FINAL LOGO(1).cdr">
	<defs id="defs17" />
	<namedview id="namedview17" pagecolor="#ffffff" bordercolor="#000000" borderopacity="0.25" inkscape:showpageshadow="2" inkscape:pageopacity="0.0" inkscape:pagecheckerboard="0" inkscape:deskcolor="#d1d1d1" inkscape:document-units="pt" />
	<g id="Layer1000">
		<path d="m 213.0094,256.5958 c 1.0082,-0.8982 2.3434,-6.9387 2.8843,-8.5356 1.9327,-5.7058 3.3085,-11.4213 5.223,-17.1496 l 1.2139,-4.3564 c 0.5001,-1.6593 0.9064,-3.1966 1.2865,-4.3508 1.9885,-6.0386 3.195,-11.3368 5.2083,-17.161 l 4.5713,-15.0516 c 0.3398,-1.0757 0.2113,-1.5763 0.9323,-2.287 1.3536,-0.7587 0.4907,-0.0703 0.8119,-0.9063 l 1.1234,-4.1828 c 0.3289,-0.7019 0.6944,-0.6981 0.1121,-1.4405 -1.1418,-0.1632 -1.7246,0.021 -3.5834,1.1119 l -10.5624,7.0897 c -2.5602,1.9854 -4.272,4.2372 -5.8854,6.3905 l -1.3798,2.1212 c 2.4317,0.3459 4.7049,-0.008 6.7952,1.2626 -2.0551,0.525 -5.539,-0.2416 -7.9878,0.2215 -1.9136,2.1041 -6.5382,9.4286 -6.7295,11.0409 2.307,0.3742 4.7284,0.0218 6.9939,1.2204 -1.5702,0.4664 -6.0584,0.1534 -7.4492,0.1135 -1.0787,1.1172 -1.6893,3.025 -2.1641,4.1896 l -4.1971,12.2803 c 1.4465,0.2649 8.3647,0.1258 8.4721,1.436 -2.8822,0.2902 -5.6883,-0.1955 -8.7337,0.0941 -0.5924,0.7126 -0.9054,2.2764 -1.0836,2.9805 -0.643,2.545 -2.8499,13.8994 -0.2849,14.5091 1.8247,0.4336 7.9397,-0.1869 8.6511,1.3312 -2.1415,0.3639 -6.0414,-0.2246 -8.458,0.1622 0.2279,1.4514 2.8257,4.7488 4.4325,5.8499 2.4784,1.6987 6.4327,2.467 9.7871,2.0165 z" style="fill:#ffffff;fill-rule:evenodd" id="path1" />
		<path d="m 234.329,187.7038 c -1.0146,2.8292 -1.7364,5.8513 -2.4509,8.5684 l -12.2779,42.9423 c -0.4868,1.446 -0.733,2.7602 -1.1695,4.2056 -0.462,1.53 -0.7901,2.8452 -1.1765,4.3421 l -1.8294,6.4506 c -0.2056,0.7177 -0.8187,1.598 -0.325,2.1539 12.1003,-2.4301 15.09,-7.9606 20.2234,-12.0886 -0.8218,-0.0474 -0.6655,-0.0529 -2.3176,0.3478 l -6.9023,1.6204 c 2.2594,-1.8566 8.0099,-2.924 9.9544,-3.6313 4.4507,-1.6187 9.2205,-17.571 9.7686,-18.4267 -2.0633,-0.2102 -7.1096,1.6957 -9.7215,2.0508 0.8534,-1.4049 8.3611,-3.1401 10.0036,-3.7369 1.2059,-3.0457 1.4985,-6.1064 2.1287,-8.1062 l 1.2055,-7.9106 c -2.5657,0.483 -7.0618,1.8665 -8.1516,1.8201 1.334,-1.3235 6.6909,-2.6131 8.2795,-3.1963 0.7646,-1.444 0.2257,-8.49 -0.5449,-10.1301 -2.4386,0.104 -6.1141,1.6962 -8.4652,1.8412 2.781,-1.7917 5.4141,-2.1985 8.0784,-3.1403 0.4298,-1.4012 -1.1993,-5.8498 -2.5178,-7.1561 l -6.7934,-4.7795 c -0.3556,-0.2074 -0.9817,-0.5362 -1.4507,-0.6516 -0.892,-0.2195 -1.1345,-0.046 -1.5005,0.0814 0.5823,0.7424 0.2168,0.7386 -0.1121,1.4405 l -1.1234,4.1828 c -0.3212,0.836 0.5417,0.1476 -0.8119,0.9063 z" style="fill:#ffffff;fill-rule:evenodd" id="path2" />
		<path d="m 213.0094,256.5958 c 0.2844,0.563 0.2421,0.174 0.1175,0.8915 -0.1558,0.8948 -1.916,5.09 -1.469,5.4182 1.1529,0.8464 1.5112,-0.9277 1.6193,-1.384 l 0.9812,-3.3827 c 0.2669,-0.9539 -0.0277,-0.9643 0.8414,-1.7721 -0.4937,-0.5559 0.1194,-1.4362 0.325,-2.1539 l 1.8294,-6.4506 c 0.3864,-1.4969 0.7145,-2.8121 1.1765,-4.3421 0.4365,-1.4454 0.6827,-2.7596 1.1695,-4.2056 l 12.2779,-42.9423 c 0.7145,-2.7171 1.4363,-5.7392 2.4509,-8.5684 -0.721,0.7107 -0.5925,1.2113 -0.9323,2.287 l -4.5713,15.0516 c -2.0133,5.8242 -3.2198,11.1224 -5.2083,17.161 -0.3801,1.1542 -0.7864,2.6915 -1.2865,4.3508 l -1.2139,4.3564 c -1.9145,5.7283 -3.2903,11.4438 -5.223,17.1496 -0.5409,1.5969 -1.8761,7.6374 -2.8843,8.5356 z" style="fill:#94bf74;fill-rule:evenodd" id="path3" />
	</g>
	<g id="Layer1001">
		<path fill="white" d="M 57.2655,193.1791 H 73.662 c 0.0856,0 0.2457,0.1709 0.502,0.502 0.4167,-0.2562 0.7477,-0.3739 1.0043,-0.3739 1.5809,0.94 2.3712,1.8908 2.3712,2.8735 -0.0961,0.3311 -0.3099,0.5876 -0.6194,0.7586 0.2455,0.4164 0.3736,0.705 0.3736,0.8759 -0.1706,0.534 -0.2563,0.9079 -0.2563,1.1214 v 0.1281 c 0.4593,0 0.7158,0.4595 0.7586,1.3782 0.2455,-0.0856 0.3736,-0.3419 0.3736,-0.7586 0,-0.3526 -0.0425,-0.8118 -0.1281,-1.3779 0.0856,-0.7478 0.2137,-1.1216 0.3739,-1.1216 h 0.2565 c 0.2455,0.0856 0.3736,0.331 0.3736,0.7477 l -0.1281,0.5021 c 0.2565,0.3098 0.3739,1.4847 0.3739,3.5036 v 0.1281 c 0,0.2137 -0.0749,0.5876 -0.2458,1.1217 0.1709,1.3351 0.2458,2.3394 0.2458,3.0123 0,0.0854 -0.0428,0.1174 -0.1174,0.1174 l 0.1174,0.6301 v 1.6237 l -0.1174,0.7586 c 0.0746,0.1601 0.1174,0.2883 0.1174,0.3739 -0.2458,0.4164 -0.3739,0.7049 -0.3739,0.8759 0.1281,0 0.2565,0.1281 0.3739,0.3736 v 3.7601 c 0,0.8544 -0.7478,1.8159 -2.2539,2.8732 0,0.3527 -0.331,0.6089 -0.9932,0.7478 0,0.1497 -0.1284,0.3631 -0.3739,0.6304 0.1602,0.0213 0.2455,0.1066 0.2455,0.2455 v 0.6304 c 0.4807,0 0.8974,0.7903 1.2498,2.382 l 0.8759,-0.1281 c 0.8334,0.4804 1.2498,1.6449 1.2498,3.5036 v 3.2579 c 0,0.2242 -0.0749,0.4807 -0.2458,0.7477 0.1709,0.5446 0.2458,0.9185 0.2458,1.1322 v 0.1176 c 0,0.5874 -0.0749,0.8759 -0.2458,0.8759 0.1709,0.4164 0.2458,1.175 0.2458,2.2539 v 5.8855 c 0,1.709 -1.3351,3.418 -4.0057,5.1378 -1.2282,0.1605 -2.1469,0.2458 -2.745,0.2458 H 59.7651 c -0.4592,0 -1.0361,-0.0428 -1.7518,-0.1281 -0.1069,0.0853 -0.3952,0.1281 -0.8759,0.1281 -0.705,0 -1.207,-0.4592 -1.4956,-1.3779 0.0749,-2.5424 0.1177,-4.4224 0.1177,-5.6294 v -9.3891 c 0,-0.673 -0.0428,-1.4636 -0.1177,-2.382 0.0749,-0.1497 0.1177,-0.3098 0.1177,-0.5023 -0.0856,-0.438 -0.1177,-0.8544 -0.1177,-1.2495 l 0.1177,-0.502 c -0.0856,-0.1605 -0.1177,-0.2886 -0.1177,-0.3739 0,-0.3526 0.3739,-0.6089 1.1217,-0.7478 0.1709,-0.2137 0.2458,-0.3739 0.2458,-0.502 0,-0.267 -0.1602,-0.6517 -0.4916,-1.1325 v -0.6193 c 0.2245,-0.3099 0.8547,-0.7691 1.8695,-1.3779 -0.2886,0 -0.502,-0.2886 -0.6197,-0.876 -0.0853,0 -0.3311,0.171 -0.7582,0.5021 h -0.4916 c -0.5873,0 -0.8759,-0.3739 -0.8759,-1.1325 v -23.1579 c 0,-1.0789 0.5344,-1.6237 1.6237,-1.6237 z m 17.4008,1.9976 v 0.1281 l 0.3736,1.5061 h 0.1284 c 0,-0.1494 0.1173,-0.3524 0.3736,-0.6302 v -0.1173 c -0.3524,-0.5877 -0.6086,-0.8867 -0.7475,-0.8867 z m 2.6274,5.6398 v 0.8759 c 0,0.1497 -0.2134,0.267 -0.6301,0.3739 -0.2671,-0.1709 -0.4808,-0.2455 -0.6194,-0.2455 v 0.8759 c 0,0.2242 0.1601,0.5553 0.502,0.9933 v 0.3846 h 0.1174 c 0.0856,-0.299 0.1281,-0.4595 0.1281,-0.502 -0.0853,-0.4595 -0.1281,-0.8013 -0.1281,-1.0043 l 1.1324,-1.1321 v -0.6197 z m -13.3948,1.2498 v 12.2627 c 0,0.6729 0.3311,1.004 1.004,1.004 h 5.1273 c 0.0856,0 0.1281,0.0428 0.1281,0.1284 0.5877,-0.2565 0.8759,-0.6304 0.8759,-1.1324 v -3.621 c 0,-0.2565 0.0428,-0.3847 0.1284,-0.3847 l -0.1284,-0.6193 v -8.1397 c -0.0853,-0.2455 -0.3311,-0.3739 -0.7475,-0.3739 h -5.5119 c -0.5874,0 -0.8759,0.2886 -0.8759,0.8759 z m 12.5189,3.7602 c -0.0853,1.036 -0.1281,1.6662 -0.1281,1.8691 l 0.1281,0.8759 h 0.2458 c 0,-0.0748 -0.0428,-0.2029 -0.1174,-0.3739 0.0746,-0.8543 0.1174,-1.5168 0.1174,-1.9973 v -0.3738 z m -0.6301,4.625 v 0.7477 h 0.1281 c 0.267,-0.1601 0.4807,-0.2457 0.6304,-0.2457 0,-0.3524 0.032,-0.8116 0.1174,-1.3779 -0.0854,-0.1602 -0.1174,-0.2883 -0.1174,-0.3739 z m -14.2708,-0.2455 -0.1176,0.2455 v 0.502 h 0.2457 l 0.1282,-0.6302 z m 14.025,1.4953 v 0.502 c 0.1604,0 0.2458,-0.0853 0.2458,-0.2455 0,-0.1709 -0.0854,-0.2565 -0.2458,-0.2565 z m -15.4029,1.6344 v 0.502 h 0.2562 c 0.1602,0 0.2458,-0.0856 0.2458,-0.2565 v -0.6194 h -0.1176 c -0.1282,0 -0.2563,0.1174 -0.3844,0.3739 z m -2.7454,1.2498 v 0.1281 c 0.0216,0.1174 0.5128,0.4913 1.4956,1.1214 v -0.3736 c -0.1817,0 -0.5661,-0.3314 -1.1217,-1.0043 -0.1709,0.0856 -0.299,0.1284 -0.3739,0.1284 z m 0.4916,7.3809 v 0.1284 h 1.004 v -0.2458 c 0,-0.1069 -0.203,-0.3206 -0.6197,-0.6301 -0.2562,0.0853 -0.3843,0.3311 -0.3843,0.7475 z m 19.0349,0.7585 v 0.3739 c 0.1602,0 0.2455,-0.0856 0.2455,-0.2565 v -0.1174 z m -16.3967,1.2498 0.2457,0.1281 0.6302,-0.8866 v -0.3739 c -0.235,0.1068 -0.5233,0.4807 -0.8759,1.1324 z m 3.3755,-0.1281 c 0.0856,0.9825 0.1281,1.6874 0.1281,2.1254 v 11.0237 c 0,0.2029 0.502,0.3738 1.4956,0.4915 0.2349,0.7582 0.4379,1.1321 0.6301,1.1321 v -0.1281 l -0.1281,-0.8759 c 0.2778,-0.1602 0.5235,-0.2458 0.7585,-0.2458 h 1.3672 c 0.2778,0 0.4807,0.0428 0.6301,0.1177 1.3779,-0.0749 2.2113,-0.2458 2.4996,-0.4915 l -0.1174,-0.876 V 225.972 c 0,-1.8371 -0.2137,-2.7558 -0.6304,-2.7558 -0.1494,-0.0746 -0.3523,-0.1174 -0.6301,-0.1174 h -4.7534 c -0.6622,0 -1.0789,0.2458 -1.2498,0.7478 z m 12.5189,0.1281 v 0.2458 h 0.1284 v -0.2458 z m -17.4005,1.004 v 0.4913 h 0.502 v -0.2455 c 0,-0.1709 -0.0853,-0.2458 -0.2562,-0.2458 z m 27.997,-31.7996 h 18.159 c 1.1642,0 1.7518,0.9187 1.7518,2.7559 0,3.3327 -0.2565,5.0099 -0.7585,5.0099 -0.5769,0.1602 -1.0789,0.2455 -1.4956,0.2455 H 92.2802 c -0.673,0 -1.004,0.3311 -1.004,1.004 v 12.1346 c 0,0.6729 0.331,1.004 1.004,1.004 h 10.7566 c 1.0897,0 1.6342,0.5876 1.6342,1.7518 0,0.8759 0.0428,2.2113 0.1284,4.0057 -0.1497,1.3354 -0.737,2.0083 -1.7626,2.0083 H 92.2802 c -0.673,0 -1.004,0.3311 -1.004,1.004 v 12.1346 c 0,0.6301 0.2457,1.0468 0.7477,1.2498 1.7947,-0.0749 3.1298,-0.1177 4.0057,-0.1177 h 0.502 c 1.3138,0 2.6493,0.0428 4.0056,0.1177 0.4595,-0.0749 0.9187,-0.1177 1.3779,-0.1177 0.5877,0.1602 1.0897,0.2458 1.5064,0.2458 h 1.8691 c 0.9188,0 1.378,0.7478 1.378,2.2538 v 1.6237 c 0,2.2538 -0.2883,3.386 -0.8759,3.386 l -0.7478,0.1281 h -3.5036 c -0.235,0 -0.4805,-0.0853 -0.7475,-0.2562 -0.0856,0.2562 -0.3419,0.3739 -0.7586,0.3739 h -2.4996 l -0.502,-0.3739 -0.7478,0.3739 c -0.502,-0.0856 -0.7582,-0.1602 -0.7582,-0.2458 l -3.7494,0.3739 c -0.3952,0 -0.8119,-0.0428 -1.2498,-0.1281 -1.0253,0.0853 -2.0293,0.1281 -3.0121,0.1281 -2.7454,0 -4.1233,-0.2458 -4.1233,-0.7478 -0.1709,-0.3203 -0.2562,-0.6514 -0.2562,-1.004 V 204.694 l 0.1281,-0.6194 h 0.3739 c 0.3739,0 0.6301,0.876 0.7478,2.6278 0,0.032 -0.0429,0.2029 -0.1177,0.4912 l 0.1177,0.7586 -0.4916,1.7518 v 0.3736 c 0.5769,0.4167 0.8759,2.3394 0.8759,5.7574 -0.1709,0.7053 -0.2562,1.1645 -0.2562,1.3782 0.1709,0.5874 0.2562,1.0466 0.2562,1.3779 l -0.2562,0.876 c 0.2562,0.6621 0.3739,1.0468 0.3739,1.1213 0,0.2566 -0.0428,0.5449 -0.1177,0.8759 0.0749,1.1325 0.1177,2.0937 0.1177,2.8843 v 1.3779 c 0.3523,0.502 0.6517,2.6277 0.8759,6.3876 v 0.7478 c 0,0.2883 -0.0428,0.6622 -0.1177,1.1217 0.1605,0.3523 0.2458,1.0253 0.2458,2.008 v 0.6197 c -0.2458,0.7154 -0.4167,1.7198 -0.502,3.0121 -0.4167,0.8331 -0.6197,1.3779 -0.6197,1.6237 h 0.2458 c 0.502,0 0.9187,-1.5061 1.2498,-4.5077 v -1.1217 c 0,-0.8331 -0.0856,-1.2603 -0.2458,-1.2603 l 0.1177,-1.4955 v -1.3779 c -0.2458,-2.4248 -0.3739,-4.0913 -0.3739,-5.0097 -0.3311,-0.1497 -0.502,-0.438 -0.502,-0.8759 v -1.0043 c 0,-0.1386 0.3418,-0.3952 1.004,-0.7475 v -0.1284 c 0,-0.0961 -0.2883,-0.3524 -0.8759,-0.7475 -0.0853,-0.1497 -0.1281,-0.3098 -0.1281,-0.502 v -2.1257 c 0,-0.0856 0.1281,-0.5021 0.3843,-1.2498 0,-0.3206 -0.2134,-0.6945 -0.6301,-1.1325 v -0.8759 c 0,-0.3523 0.0856,-0.6834 0.2458,-0.9932 l -0.1177,-0.2566 0.1177,-0.7475 c -0.1602,-2.0296 -0.2458,-3.2366 -0.2458,-3.6317 0.1709,-0.6304 0.2458,-1.0043 0.2458,-1.1325 -0.4916,0 -0.7478,-0.2882 -0.7478,-0.8759 0.2562,-0.5128 0.4167,-1.4312 0.502,-2.745 -0.1709,-0.4167 -0.2883,-0.6305 -0.3739,-0.6305 l 0.1281,-0.6301 v -0.1174 c 0,-0.2137 -0.1281,-0.7157 -0.3843,-1.5063 0,-0.3098 0.299,-0.769 0.8759,-1.3779 0,-0.5233 -0.2886,-1.0573 -0.8759,-1.6237 v -0.6301 c 0.566,-0.5233 0.9399,-0.94 1.1321,-1.2498 -0.502,-0.6835 -0.7478,-1.2283 -0.7478,-1.6237 0.1177,-0.7583 0.4167,-1.1322 0.8759,-1.1322 -0.1709,-0.2029 -0.2562,-0.3311 -0.2562,-0.3739 v -0.3739 c 0,-0.1921 0.502,-0.3098 1.506,-0.3738 -0.0212,-0.1922 -0.4379,-0.3952 -1.2498,-0.6302 v -0.3739 c 0.4167,-0.5873 0.8759,-0.8759 1.3675,-0.8759 z m -3.3755,3.2579 h 0.1281 c 0.1602,0.0215 0.2458,0.0964 0.2458,0.2457 v 0.1282 c 0,0.1604 -0.0856,0.2457 -0.2458,0.2457 h -0.1281 c -0.171,0 -0.2458,-0.0853 -0.2458,-0.2457 v -0.1282 c 0.0216,-0.1709 0.0961,-0.2457 0.2458,-0.2457 z m 4.7534,4.0059 c 0,0.0745 -0.0428,0.2027 -0.1176,0.3736 l 0.2457,0.1284 c 0.1709,0 0.2563,-0.0856 0.2563,-0.2565 v -0.2455 z m -4.8816,0 c 0.5874,0.5553 0.876,1.0573 0.876,1.4953 v 0.2562 c 0,0.1177 -0.1177,0.2458 -0.3739,0.3739 h -0.2458 c -0.3523,0 -0.5661,-0.502 -0.6301,-1.506 0.064,-0.4167 0.1921,-0.6194 0.3738,-0.6194 z m 5.266,3.6317 c 0.0748,0.3311 0.3313,0.4913 0.7477,0.4913 l 0.1282,-0.2458 v -0.1281 c 0,-0.1281 -0.171,-0.2883 -0.502,-0.502 -0.1282,0 -0.2563,0.1281 -0.3739,0.3846 z m 14.6449,34.5447 -0.1284,0.2458 v 0.502 h 0.2457 l 0.1282,-0.6196 z m -1.3779,3.1298 v 0.502 h 0.2454 c 0.171,0 0.2566,-0.0853 0.2566,-0.2563 v -0.6196 h -0.1284 c -0.1282,0 -0.2563,0.1176 -0.3736,0.3739 z m -2.7562,1.2498 v 0.1281 c 0.0216,0.1176 0.5236,0.502 1.5064,1.1217 v -0.3739 c -0.1925,0 -0.5664,-0.3311 -1.1325,-1.0041 -0.1709,0.0854 -0.2883,0.1282 -0.3739,0.1282 z m -2.008,0.3739 c 0,0.1709 -0.0749,0.2562 -0.2458,0.2562 0.0856,0.1602 0.1281,0.2886 0.1281,0.3739 h 0.1177 c 0.1709,0 0.2562,-0.0853 0.2562,-0.2563 v -0.1176 c 0,-0.1709 -0.0853,-0.2562 -0.2562,-0.2562 z m 29.6952,-50.1937 c 1.1965,0.1709 1.9014,0.2886 2.1257,0.3739 1.1321,-0.2458 2.008,-0.3739 2.6384,-0.3739 1.0148,0 1.645,0.502 1.8692,1.5061 -0.0748,1.6665 -0.1173,2.9162 -0.1173,3.7494 v 5.138 c 0,1.0789 -0.0429,2.4993 -0.1285,4.2511 0.171,0.3739 0.2458,0.9188 0.2458,1.6237 v 0.2566 c 0,0.2883 -0.0428,0.6621 -0.1173,1.1214 0.0745,0.1496 0.1173,0.3631 0.1173,0.6304 0,0.7475 -0.4164,1.1214 -1.2498,1.1214 -0.3311,0 -0.502,0.0428 -0.502,0.1281 0.1709,0.267 0.2565,0.5236 0.2565,0.7478 -0.0856,0.1709 -0.1284,0.299 -0.1284,0.3846 h 0.2458 c 0.1069,-0.7585 0.4807,-1.1324 1.1321,-1.1324 l 0.2458,0.3739 v 0.2565 c 0,0.5769 -0.2883,0.8759 -0.8759,0.8759 0,0.3524 0.2991,0.7263 0.8759,1.1214 v 2.2538 c 0,0.1925 -0.0428,0.3527 -0.1173,0.5023 0.0745,0.1494 0.1173,0.3096 0.1173,0.502 v 1.7519 c -0.1602,0.331 -0.3739,0.502 -0.6194,0.502 v 0.502 c 0.2455,0 0.4592,0.1601 0.6194,0.502 v 21.5238 c 0,1.1749 -0.3739,1.7518 -1.1217,1.7518 h -2.7558 c -0.769,0 -1.8587,0.0428 -3.2579,0.1281 -0.8546,0 -1.6449,-1.8371 -2.3714,-5.5117 -1.5914,-4.604 -3.4288,-10.5324 -5.5117,-17.7746 l -0.2458,-0.1174 c -0.1281,0 -0.2562,0.1174 -0.3844,0.3739 v 2.3712 c 0,0.2565 -0.032,0.3846 -0.1176,0.3846 l 0.1176,0.6197 v 17.9025 c 0,1.0788 -0.4915,1.6237 -1.4955,1.6237 h -4.8816 c -0.8118,0 -1.3138,-0.3311 -1.506,-0.9936 l 0.1281,-1.2603 V 221.849 c 0.1069,-3.2579 0.267,-4.8815 0.502,-4.8815 -0.3311,-0.5021 -0.502,-0.8759 -0.502,-1.1325 0,-0.4164 0.0856,-0.6301 0.2458,-0.6301 l -0.1177,-0.6194 v -0.2565 c 0.7266,-0.5981 1.1005,-0.972 1.1217,-1.1217 -0.4167,-0.5661 -0.6196,-1.0681 -0.6196,-1.506 0.1604,0 0.2457,-0.0749 0.2457,-0.2455 -0.5873,-0.438 -0.8759,-0.8547 -0.8759,-1.2498 v -7.8939 c 0,-0.2671 0.0428,-0.47 0.1281,-0.6197 l -0.1281,-0.7475 v -6.2597 c 0,-0.4592 0.1709,-0.7583 0.502,-0.8759 h 1.0041 c 0.1176,0 0.2885,0.1604 0.4915,0.4915 0.0428,0 0.2134,-0.032 0.502,-0.1177 0.8119,0 1.3139,0.5769 1.5061,1.7519 0.1817,0 0.3526,-0.5874 0.502,-1.7519 l 0.8759,-0.6301 h 1.004 c 1.2073,0 1.9123,0.8331 2.1257,2.5104 1.8374,5.7895 2.7559,8.9192 2.7559,9.3784 0.2457,0.5236 0.9935,2.7774 2.2541,6.7615 l 1.3671,3.8883 c 0,0.0748 0.0428,0.1173 0.1281,0.1173 h 0.2566 v -4.0056 c 0,-0.2242 0.0745,-0.4805 0.2455,-0.7475 -0.171,-0.2673 -0.2455,-0.5236 -0.2455,-0.7478 v -0.1281 l 0.3736,-4.508 c -0.0853,-1.6234 -0.2563,-3.0016 -0.502,-4.1337 0.2457,-1.3139 0.3739,-2.3179 0.3739,-3.0016 v -0.7478 c -0.171,-1.8799 -0.2455,-2.884 -0.2455,-3.0121 v -0.4915 c 0.0425,-1.0041 0.534,-1.5061 1.4953,-1.5061 z m -15.0186,2.382 c 0,0.0748 -0.0428,0.2029 -0.1281,0.3739 0.4167,0.1389 0.6301,0.3526 0.6301,0.6196 h 0.1282 c 0.1817,0 0.3098,-0.2029 0.3739,-0.6196 -0.3419,-0.0854 -0.6302,-0.2135 -0.8759,-0.3739 z m 3.6318,0 v 0.3739 c 0.0215,0.1604 0.1068,0.2457 0.2457,0.2457 0.171,0 0.2563,-0.0853 0.2563,-0.2457 -0.0853,-0.171 -0.1281,-0.2991 -0.1281,-0.3739 z m -1.6342,1.4955 c 0.1709,0.5448 0.2563,0.9187 0.2563,1.1322 v 0.6196 c -0.1069,0.8331 -0.2671,1.2606 -0.5021,1.2606 h -1.004 c 0,0.4164 -0.1601,0.6194 -0.502,0.6194 l 0.1281,0.8759 v 0.1281 c 0,0.3526 -0.0853,0.6837 -0.2457,1.0043 0.0856,0.4592 0.1176,0.8331 0.1176,1.1214 0,0.267 -0.1176,0.5661 -0.3739,0.8759 0.2563,0.2137 0.3739,0.5448 0.3739,1.004 h 0.1281 l 0.1281,-0.6301 v -1.1217 c 0,-0.4164 0.1282,-0.8331 0.3739,-1.2495 -0.2457,-0.0856 -0.3739,-0.3418 -0.3739,-0.7585 0.3527,-0.9187 0.8547,-1.3779 1.4956,-1.3779 0.4272,-0.5128 0.6301,-1.4313 0.6301,-2.7451 h 0.1282 l -0.3739,-1.5063 c -0.2563,0.0856 -0.3844,0.331 -0.3844,0.7477 z m -2.7453,-0.2457 v 0.2457 c 0.4166,0.5877 0.6624,0.8759 0.7477,0.8759 0.171,0 0.2458,-0.0853 0.2458,-0.2457 v -0.2563 c 0,-0.0961 -0.2458,-0.3098 -0.7478,-0.6196 z m 0.1176,2.3714 v 0.1282 h 0.1281 c 0.1281,0 0.2563,-0.1282 0.3739,-0.3739 v -0.2455 c -0.1176,0 -0.2886,0.1601 -0.502,0.4912 z m 2.7558,3.888 0.1282,0.6197 h 0.1281 v -0.6197 z m -1.6237,3.13 v 0.7475 c 0.0216,0.171 0.1069,0.2458 0.2458,0.2458 v -0.3739 l -0.1176,-0.6194 z m 0.3739,1.4953 c 0,0.94 -0.1281,1.5276 -0.3739,1.7518 0.0641,0.502 0.1497,0.7586 0.2458,0.7586 -0.0856,1.1429 -0.2029,2.0188 -0.3739,2.6277 0.1497,1.3351 0.3098,1.9973 0.502,1.9973 v -0.1174 c -0.0853,-1.3354 -0.1281,-2.1364 -0.1281,-2.3819 0,-0.2137 0.0853,-0.6732 0.2563,-1.3782 -0.0854,-0.3311 -0.1282,-0.6302 -0.1282,-0.8759 l 0.5021,-0.3736 -0.3739,-1.3782 0.1176,-0.2455 c -0.0748,-0.1709 -0.1176,-0.2991 -0.1176,-0.3847 z m 7.5093,5.1381 v 0.2455 c 0,0.1281 0.1281,0.2565 0.3739,0.3739 h 0.1281 v -0.1174 c -0.1709,-0.2137 -0.2458,-0.3739 -0.2458,-0.502 z m 7.2635,1.9973 v 0.502 l 0.6196,-0.1281 v -0.6194 h -0.3738 c -0.1602,0.0213 -0.2458,0.1066 -0.2458,0.2455 z m -14.7728,0.2565 c -0.1922,1.0574 -0.3951,1.8159 -0.6301,2.2539 v 0.2454 c 0.0853,0 0.3419,0.171 0.7583,0.5023 0.1601,-0.4167 0.2885,-0.6304 0.3739,-0.6304 -0.1922,-1.5809 -0.3524,-2.3712 -0.5021,-2.3712 z m -0.502,4.3796 c 0.502,0.6834 0.7478,1.1854 0.7478,1.506 v 0.6197 c 0,0.2775 -0.032,0.4804 -0.1176,0.6301 0.0856,0.2242 0.1176,0.8544 0.1176,1.8799 h 0.1281 l 0.1282,-0.6301 v -2.2538 c 0,-0.2886 0.0428,-0.673 0.1281,-1.1217 -0.1066,-0.2778 -0.3203,-0.5661 -0.6302,-0.8867 z m 15.7771,1.1213 v 0.2566 c 0.0213,0.1601 0.0961,0.2455 0.2455,0.2455 h 0.502 c 0.4595,0 1.0896,-0.0854 1.8799,-0.2455 l 0.7478,0.1281 0.1281,-0.2562 v -0.2458 l -0.6301,0.1173 h -0.2458 c -0.9399,-0.331 -1.5273,-0.4912 -1.7515,-0.4912 h -0.3739 c -0.1284,0 -0.2993,0.1602 -0.502,0.4912 z m 3.8772,-0.4912 v 0.1174 h 0.3739 v -0.1174 z m -17.2723,4.3795 v 0.2458 c 0.4595,-0.3314 0.7906,-0.502 1.004,-0.502 l -0.1281,-0.6197 c -0.1281,0 -0.4164,0.2883 -0.8759,0.8759 z m -1.7518,0.6194 v 0.7585 h 0.1176 v -0.7585 z m 40.8685,-31.917 c 1.1965,0.1709 1.9014,0.2886 2.1257,0.3739 1.1321,-0.2458 2.008,-0.3739 2.6385,-0.3739 1.0148,0 1.6449,0.502 1.8691,1.5061 -0.0748,1.6665 -0.1173,2.9162 -0.1173,3.7494 v 5.138 c 0,1.0789 -0.0428,2.4993 -0.1284,4.2511 0.1709,0.3739 0.2457,0.9188 0.2457,1.6237 v 0.2566 c 0,0.2883 -0.0428,0.6621 -0.1173,1.1214 0.0745,0.1496 0.1173,0.3631 0.1173,0.6304 0,0.7475 -0.4164,1.1214 -1.2498,1.1214 -0.3311,0 -0.502,0.0428 -0.502,0.1281 0.1709,0.267 0.2565,0.5236 0.2565,0.7478 -0.0856,0.1709 -0.1284,0.299 -0.1284,0.3846 h 0.2458 c 0.1069,-0.7585 0.4808,-1.1324 1.1322,-1.1324 l 0.2457,0.3739 v 0.2565 c 0,0.5769 -0.2883,0.8759 -0.8759,0.8759 0,0.3524 0.2991,0.7263 0.8759,1.1214 v 2.2538 c 0,0.1925 -0.0428,0.3527 -0.1173,0.5023 0.0745,0.1494 0.1173,0.3096 0.1173,0.502 v 1.7519 c -0.1601,0.331 -0.3739,0.502 -0.6193,0.502 v 0.502 c 0.2454,0 0.4592,0.1601 0.6193,0.502 v 21.5238 c 0,1.1749 -0.3739,1.7518 -1.1216,1.7518 h -2.7559 c -0.769,0 -1.8587,0.0428 -3.2578,0.1281 -0.8547,0 -1.645,-1.8371 -2.3715,-5.5117 -1.5914,-4.604 -3.4288,-10.5324 -5.5117,-17.7746 l -0.2458,-0.1174 c -0.1281,0 -0.2562,0.1174 -0.3843,0.3739 v 2.3712 c 0,0.2565 -0.0321,0.3846 -0.1177,0.3846 l 0.1177,0.6197 v 17.9025 c 0,1.0788 -0.4916,1.6237 -1.4956,1.6237 h -4.8815 c -0.8119,0 -1.3139,-0.3311 -1.5061,-0.9936 l 0.1281,-1.2603 V 221.849 c 0.1069,-3.2579 0.2671,-4.8815 0.5021,-4.8815 -0.3311,-0.5021 -0.5021,-0.8759 -0.5021,-1.1325 0,-0.4164 0.0856,-0.6301 0.2458,-0.6301 l -0.1176,-0.6194 v -0.2565 c 0.7265,-0.5981 1.1004,-0.972 1.1216,-1.1217 -0.4167,-0.5661 -0.6196,-1.0681 -0.6196,-1.506 0.1604,0 0.2457,-0.0749 0.2457,-0.2455 -0.5873,-0.438 -0.8759,-0.8547 -0.8759,-1.2498 v -7.8939 c 0,-0.2671 0.0428,-0.47 0.1282,-0.6197 l -0.1282,-0.7475 v -6.2597 c 0,-0.4592 0.171,-0.7583 0.5021,-0.8759 h 1.004 c 0.1176,0 0.2886,0.1604 0.4915,0.4915 0.0428,0 0.2135,-0.032 0.502,-0.1177 0.8119,0 1.3139,0.5769 1.5061,1.7519 0.1817,0 0.3526,-0.5874 0.502,-1.7519 l 0.8759,-0.6301 h 1.004 c 1.2073,0 1.9123,0.8331 2.1257,2.5104 1.8374,5.7895 2.7559,8.9192 2.7559,9.3784 0.2457,0.5236 0.9935,2.7774 2.2541,6.7615 l 1.3671,3.8883 c 0,0.0748 0.0428,0.1173 0.1282,0.1173 h 0.2565 v -4.0056 c 0,-0.2242 0.0745,-0.4805 0.2455,-0.7475 -0.171,-0.2673 -0.2455,-0.5236 -0.2455,-0.7478 v -0.1281 l 0.3736,-4.508 c -0.0853,-1.6234 -0.2563,-3.0016 -0.502,-4.1337 0.2457,-1.3139 0.3739,-2.3179 0.3739,-3.0016 v -0.7478 c -0.171,-1.8799 -0.2455,-2.884 -0.2455,-3.0121 v -0.4915 c 0.0425,-1.0041 0.534,-1.5061 1.4953,-1.5061 z m -15.0186,2.382 c 0,0.0748 -0.0428,0.2029 -0.1281,0.3739 0.4167,0.1389 0.6302,0.3526 0.6302,0.6196 h 0.1281 c 0.1817,0 0.3098,-0.2029 0.3739,-0.6196 -0.3419,-0.0854 -0.6302,-0.2135 -0.8759,-0.3739 z m 3.6318,0 v 0.3739 c 0.0215,0.1604 0.1069,0.2457 0.2458,0.2457 0.1709,0 0.2562,-0.0853 0.2562,-0.2457 -0.0853,-0.171 -0.1281,-0.2991 -0.1281,-0.3739 z m -1.6342,1.4955 c 0.171,0.5448 0.2563,0.9187 0.2563,1.1322 v 0.6196 c -0.1069,0.8331 -0.267,1.2606 -0.502,1.2606 h -1.0041 c 0,0.4164 -0.1601,0.6194 -0.502,0.6194 l 0.1281,0.8759 v 0.1281 c 0,0.3526 -0.0853,0.6837 -0.2457,1.0043 0.0856,0.4592 0.1176,0.8331 0.1176,1.1214 0,0.267 -0.1176,0.5661 -0.3739,0.8759 0.2563,0.2137 0.3739,0.5448 0.3739,1.004 h 0.1281 l 0.1282,-0.6301 v -1.1217 c 0,-0.4164 0.1281,-0.8331 0.3739,-1.2495 -0.2458,-0.0856 -0.3739,-0.3418 -0.3739,-0.7585 0.3526,-0.9187 0.8546,-1.3779 1.4955,-1.3779 0.4272,-0.5128 0.6302,-1.4313 0.6302,-2.7451 h 0.1281 l -0.3739,-1.5063 c -0.2563,0.0856 -0.3844,0.331 -0.3844,0.7477 z m -2.7453,-0.2457 v 0.2457 c 0.4167,0.5877 0.6624,0.8759 0.7477,0.8759 0.171,0 0.2458,-0.0853 0.2458,-0.2457 v -0.2563 c 0,-0.0961 -0.2458,-0.3098 -0.7478,-0.6196 z m 0.1176,2.3714 v 0.1282 h 0.1281 c 0.1282,0 0.2563,-0.1282 0.3739,-0.3739 v -0.2455 c -0.1176,0 -0.2885,0.1601 -0.502,0.4912 z m 2.7558,3.888 0.1282,0.6197 h 0.1281 v -0.6197 z m -1.6236,3.13 v 0.7475 c 0.0215,0.171 0.1068,0.2458 0.2457,0.2458 v -0.3739 l -0.1176,-0.6194 z m 0.3739,1.4953 c 0,0.94 -0.1282,1.5276 -0.3739,1.7518 0.064,0.502 0.1496,0.7586 0.2457,0.7586 -0.0856,1.1429 -0.2029,2.0188 -0.3739,2.6277 0.1497,1.3351 0.3099,1.9973 0.5021,1.9973 v -0.1174 c -0.0854,-1.3354 -0.1282,-2.1364 -0.1282,-2.3819 0,-0.2137 0.0853,-0.6732 0.2563,-1.3782 -0.0853,-0.3311 -0.1281,-0.6302 -0.1281,-0.8759 l 0.502,-0.3736 -0.3739,-1.3782 0.1176,-0.2455 c -0.0748,-0.1709 -0.1176,-0.2991 -0.1176,-0.3847 z m 7.5092,5.1381 v 0.2455 c 0,0.1281 0.1281,0.2565 0.3739,0.3739 h 0.1281 v -0.1174 c -0.1709,-0.2137 -0.2457,-0.3739 -0.2457,-0.502 z m 7.2635,1.9973 v 0.502 l 0.6197,-0.1281 v -0.6194 h -0.3739 c -0.1602,0.0213 -0.2458,0.1066 -0.2458,0.2455 z m -14.7727,0.2565 c -0.1922,1.0574 -0.3952,1.8159 -0.6302,2.2539 v 0.2454 c 0.0853,0 0.3419,0.171 0.7583,0.5023 0.1601,-0.4167 0.2885,-0.6304 0.3739,-0.6304 -0.1922,-1.5809 -0.3524,-2.3712 -0.502,-2.3712 z m -0.5021,4.3796 c 0.5021,0.6834 0.7478,1.1854 0.7478,1.506 v 0.6197 c 0,0.2775 -0.032,0.4804 -0.1176,0.6301 0.0856,0.2242 0.1176,0.8544 0.1176,1.8799 h 0.1281 l 0.1282,-0.6301 v -2.2538 c 0,-0.2886 0.0428,-0.673 0.1281,-1.1217 -0.1066,-0.2778 -0.3203,-0.5661 -0.6301,-0.8867 z m 15.7771,1.1213 v 0.2566 c 0.0213,0.1601 0.0961,0.2455 0.2455,0.2455 h 0.502 c 0.4595,0 1.0896,-0.0854 1.8799,-0.2455 l 0.7478,0.1281 0.1281,-0.2562 v -0.2458 l -0.6301,0.1173 h -0.2458 c -0.9399,-0.331 -1.5273,-0.4912 -1.7515,-0.4912 h -0.3739 c -0.1284,0 -0.2993,0.1602 -0.502,0.4912 z m 3.8772,-0.4912 v 0.1174 h 0.3739 v -0.1174 z m -17.2723,4.3795 v 0.2458 c 0.4595,-0.3314 0.7906,-0.502 1.004,-0.502 l -0.1281,-0.6197 c -0.1281,0 -0.4164,0.2883 -0.8759,0.8759 z m -1.7518,0.6194 v 0.7585 h 0.1176 v -0.7585 z m 27.8475,-31.917 h 18.1591 c 1.1642,0 1.7518,0.9187 1.7518,2.7559 0,3.3327 -0.2566,5.0099 -0.7586,5.0099 -0.5768,0.1602 -1.0788,0.2455 -1.4955,0.2455 h -12.3908 c -0.673,0 -1.0041,0.3311 -1.0041,1.004 v 12.1346 c 0,0.6729 0.3311,1.004 1.0041,1.004 h 10.7566 c 1.0896,0 1.6342,0.5876 1.6342,1.7518 0,0.8759 0.0428,2.2113 0.1284,4.0057 -0.1497,1.3354 -0.737,2.0083 -1.7626,2.0083 h -10.7566 c -0.673,0 -1.0041,0.3311 -1.0041,1.004 v 12.1346 c 0,0.6301 0.2458,1.0468 0.7478,1.2498 1.7946,-0.0749 3.1297,-0.1177 4.0056,-0.1177 h 0.5021 c 1.3138,0 2.6492,0.0428 4.0056,0.1177 0.4595,-0.0749 0.9187,-0.1177 1.3779,-0.1177 0.5876,0.1602 1.0897,0.2458 1.5064,0.2458 h 1.8691 c 0.9187,0 1.3779,0.7478 1.3779,2.2538 v 1.6237 c 0,2.2538 -0.2882,3.386 -0.8759,3.386 l -0.7477,0.1281 h -3.5037 c -0.235,0 -0.4804,-0.0853 -0.7475,-0.2562 -0.0856,0.2562 -0.3418,0.3739 -0.7585,0.3739 h -2.4996 l -0.502,-0.3739 -0.7478,0.3739 c -0.502,-0.0856 -0.7583,-0.1602 -0.7583,-0.2458 l -3.7494,0.3739 c -0.3951,0 -0.8118,-0.0428 -1.2498,-0.1281 -1.0252,0.0853 -2.0293,0.1281 -3.012,0.1281 -2.7454,0 -4.1233,-0.2458 -4.1233,-0.7478 -0.171,-0.3203 -0.2563,-0.6514 -0.2563,-1.004 V 204.694 l 0.1282,-0.6194 h 0.3738 c 0.3739,0 0.6302,0.876 0.7478,2.6278 0,0.032 -0.0428,0.2029 -0.1176,0.4912 l 0.1176,0.7586 -0.4915,1.7518 v 0.3736 c 0.5768,0.4167 0.8759,2.3394 0.8759,5.7574 -0.1709,0.7053 -0.2563,1.1645 -0.2563,1.3782 0.171,0.5874 0.2563,1.0466 0.2563,1.3779 l -0.2563,0.876 c 0.2563,0.6621 0.3739,1.0468 0.3739,1.1213 0,0.2566 -0.0428,0.5449 -0.1176,0.8759 0.0748,1.1325 0.1176,2.0937 0.1176,2.8843 v 1.3779 c 0.3524,0.502 0.6517,2.6277 0.8759,6.3876 v 0.7478 c 0,0.2883 -0.0428,0.6622 -0.1176,1.1217 0.1604,0.3523 0.2458,1.0253 0.2458,2.008 v 0.6197 c -0.2458,0.7154 -0.4167,1.7198 -0.502,3.0121 -0.4167,0.8331 -0.6197,1.3779 -0.6197,1.6237 h 0.2458 c 0.502,0 0.9187,-1.5061 1.2498,-4.5077 v -1.1217 c 0,-0.8331 -0.0856,-1.2603 -0.2458,-1.2603 l 0.1176,-1.4955 v -1.3779 c -0.2457,-2.4248 -0.3739,-4.0913 -0.3739,-5.0097 -0.331,-0.1497 -0.502,-0.438 -0.502,-0.8759 v -1.0043 c 0,-0.1386 0.3419,-0.3952 1.0041,-0.7475 v -0.1284 c 0,-0.0961 -0.2883,-0.3524 -0.8759,-0.7475 -0.0854,-0.1497 -0.1282,-0.3098 -0.1282,-0.502 v -2.1257 c 0,-0.0856 0.1282,-0.5021 0.3844,-1.2498 0,-0.3206 -0.2134,-0.6945 -0.6301,-1.1325 v -0.8759 c 0,-0.3523 0.0856,-0.6834 0.2457,-0.9932 l -0.1176,-0.2566 0.1176,-0.7475 c -0.1601,-2.0296 -0.2457,-3.2366 -0.2457,-3.6317 0.1709,-0.6304 0.2457,-1.0043 0.2457,-1.1325 -0.4915,0 -0.7478,-0.2882 -0.7478,-0.8759 0.2563,-0.5128 0.4167,-1.4312 0.5021,-2.745 -0.171,-0.4167 -0.2883,-0.6305 -0.3739,-0.6305 l 0.1281,-0.6301 v -0.1174 c 0,-0.2137 -0.1281,-0.7157 -0.3844,-1.5063 0,-0.3098 0.2991,-0.769 0.8759,-1.3779 0,-0.5233 -0.2885,-1.0573 -0.8759,-1.6237 v -0.6301 c 0.5661,-0.5233 0.94,-0.94 1.1322,-1.2498 -0.502,-0.6835 -0.7478,-1.2283 -0.7478,-1.6237 0.1176,-0.7583 0.4167,-1.1322 0.8759,-1.1322 -0.1709,-0.2029 -0.2562,-0.3311 -0.2562,-0.3739 v -0.3739 c 0,-0.1921 0.502,-0.3098 1.506,-0.3738 -0.0213,-0.1922 -0.438,-0.3952 -1.2498,-0.6302 v -0.3739 c 0.4167,-0.5873 0.8759,-0.8759 1.3674,-0.8759 z m -3.3755,3.2579 h 0.1282 c 0.1601,0.0215 0.2457,0.0964 0.2457,0.2457 v 0.1282 c 0,0.1604 -0.0856,0.2457 -0.2457,0.2457 h -0.1282 c -0.1709,0 -0.2457,-0.0853 -0.2457,-0.2457 v -0.1282 c 0.0215,-0.1709 0.0961,-0.2457 0.2457,-0.2457 z m 4.7535,4.0059 c 0,0.0745 -0.0428,0.2027 -0.1177,0.3736 l 0.2458,0.1284 c 0.1709,0 0.2562,-0.0856 0.2562,-0.2565 v -0.2455 z m -4.8816,0 c 0.5874,0.5553 0.8759,1.0573 0.8759,1.4953 v 0.2562 c 0,0.1177 -0.1176,0.2458 -0.3739,0.3739 h -0.2457 c -0.3524,0 -0.5661,-0.502 -0.6302,-1.506 0.0641,-0.4167 0.1922,-0.6194 0.3739,-0.6194 z m 5.2659,3.6317 c 0.0749,0.3311 0.3314,0.4913 0.7478,0.4913 l 0.1281,-0.2458 v -0.1281 c 0,-0.1281 -0.1709,-0.2883 -0.502,-0.502 -0.1281,0 -0.2562,0.1281 -0.3739,0.3846 z m 14.645,34.5447 -0.1285,0.2458 v 0.502 h 0.2458 l 0.1281,-0.6196 z m -1.378,3.1298 v 0.502 h 0.2455 c 0.1709,0 0.2565,-0.0853 0.2565,-0.2563 v -0.6196 h -0.1284 c -0.1281,0 -0.2562,0.1176 -0.3736,0.3739 z m -2.7561,1.2498 v 0.1281 c 0.0215,0.1176 0.5236,0.502 1.5063,1.1217 v -0.3739 c -0.1924,0 -0.5663,-0.3311 -1.1324,-1.0041 -0.1709,0.0854 -0.2883,0.1282 -0.3739,0.1282 z m -2.0081,0.3739 c 0,0.1709 -0.0748,0.2562 -0.2457,0.2562 0.0856,0.1602 0.1281,0.2886 0.1281,0.3739 h 0.1176 c 0.171,0 0.2563,-0.0853 0.2563,-0.2563 v -0.1176 c 0,-0.1709 -0.0853,-0.2562 -0.2563,-0.2562 z" style="fill:#ffffff;fill-rule:evenodd" id="path4" />
		<path d="m 259.6207,193.051 h 5.5116 c 1.88,0 4.5505,0.0428 8.0113,0.1281 0.4808,0 1.7306,1.0469 3.7494,3.1298 0.502,0.5876 0.7586,1.1644 0.7586,1.7518 v 40.5586 l -0.1285,0.7478 c 0.0857,0.1494 0.1285,0.3524 0.1285,0.6302 v 0.3738 c 0,0.9188 -1.0469,2.2539 -3.1301,4.0057 0,0.4592 -0.6729,0.7478 -2.008,0.8759 h -0.8759 c -0.2458,0 -0.3739,-0.0428 -0.3739,-0.1281 l -0.6194,0.1281 h -8.1397 c -3.5889,0 -5.3835,-0.2883 -5.3835,-0.8759 -1.3992,-1.0468 -2.446,-2.1685 -3.1298,-3.3755 0,-0.8011 0.0428,-1.5917 0.1282,-2.382 -0.0854,-6.3022 -0.1282,-11.6858 -0.1282,-16.1506 v -1.8803 l 0.1282,-0.7475 c -0.0854,-0.1496 -0.1282,-0.3526 -0.1282,-0.6304 v -3.621 c 0.0641,-0.502 0.1817,-0.7585 0.3739,-0.7585 h 0.7478 v -0.2455 c -0.7478,-0.7906 -1.1217,-1.2926 -1.1217,-1.5063 0,-0.0853 0.203,-0.3739 0.6302,-0.8759 -0.3416,0 -0.502,-0.2455 -0.502,-0.7475 0,-0.0856 0.0428,-0.1284 0.1176,-0.1284 l -0.1176,-0.2455 c 0,-0.2778 0.1176,-0.5664 0.3739,-0.8759 -0.3311,-0.1069 -0.5021,-0.4808 -0.5021,-1.1325 0.0641,-0.502 0.1817,-0.7477 0.3739,-0.7477 h 0.3739 l 0.3739,0.2457 v -0.3739 c -0.3098,0 -0.6837,-0.4164 -1.1217,-1.2498 l 0.1282,-1.506 v -7.8832 c 0,-0.9399 1.4527,-2.3927 4.3795,-4.3795 0.4595,-0.0853 0.8334,-0.1281 1.1217,-0.1281 z m 2.51,9.1434 c 0,0.1177 0.0428,0.6197 0.1177,1.4956 0,0.1922 -0.0428,0.3631 -0.1177,0.502 0.0749,0.5661 0.1177,1.0256 0.1177,1.3779 v 3.0016 c 0,0.6517 -0.1602,1.0256 -0.4913,1.1325 l -0.2565,-0.1284 c 0,0.0856 -0.0428,0.1284 -0.1281,0.1284 0.1709,0.267 0.2562,0.5232 0.2562,0.7475 l -0.7582,0.6304 0.2562,0.1173 h 0.1281 c 0.0428,0 0.1605,-0.0748 0.3739,-0.2457 h 0.1284 c 0.1386,0 0.2671,0.2457 0.3736,0.7478 -0.1281,0.3418 -0.2562,0.502 -0.3736,0.502 -0.1709,-0.0853 -0.2993,-0.1174 -0.3846,-0.1174 l -0.1177,0.2458 c 0.2671,0.267 0.4808,0.6406 0.6197,1.1214 0.1709,0.0215 0.2562,0.1068 0.2562,0.2565 0,0.0641 -0.0425,0.3952 -0.1281,1.004 0.1709,0.3311 0.2458,0.5769 0.2458,0.7478 0,0.9184 -0.203,1.3779 -0.6197,1.3779 v 0.1282 c 0.4167,0.4379 0.6197,0.769 0.6197,0.9932 0,0.1925 -0.0428,0.3527 -0.1177,0.502 l 0.1177,0.6305 c 0,0.7477 -0.0428,1.2498 -0.1177,1.4952 0.0749,2.1153 0.1177,3.7815 0.1177,5.01 v 3.6317 c 0,2.8948 -0.0749,4.86 -0.2458,5.8856 0.0641,1.004 0.3098,1.8372 0.7478,2.4996 1.0468,-0.1602 1.6665,-0.2458 1.8799,-0.2458 0.4167,0.0961 0.6302,0.2243 0.6302,0.3739 -0.0854,0.1497 -0.1282,0.3099 -0.1282,0.502 0.3099,-0.5873 0.6838,-0.8759 1.1217,-0.8759 0.9612,0 1.5917,0.1602 1.88,0.5021 h 0.1281 c 0,-0.1494 0.3313,-0.4808 1.0043,-1.0041 0.0533,-0.5876 0.1386,-0.8759 0.2455,-0.8759 l -0.1282,-1.2498 v -1.8799 c 0,-1.2926 0.1282,-2.1257 0.3847,-2.5104 -0.2565,-0.0745 -0.3847,-0.3311 -0.3847,-0.7475 v -1.4955 c 0.0213,-0.4272 0.1069,-0.6302 0.2563,-0.6302 -0.1706,-0.267 -0.2563,-0.5235 -0.2563,-0.7477 v -3.0124 c 0.0641,-0.502 0.1922,-0.7475 0.3847,-0.7475 0.2455,0.0853 0.3739,0.3311 0.3739,0.7475 h 0.1174 l 0.1281,-0.6194 v -1.1324 c 0,-0.4164 0.1281,-0.8331 0.3739,-1.2495 -0.2458,-0.0857 -0.3739,-0.3314 -0.3739,-0.7478 0.3526,-0.9187 0.8546,-1.378 1.5063,-1.378 0.4164,-0.5235 0.6194,-1.4422 0.6194,-2.7561 h 0.1281 l -0.3739,-1.506 c -0.2562,0.0856 -0.3736,0.3418 -0.3736,0.7585 0.1602,0.5448 0.2455,0.9185 0.2455,1.1214 v 0.6304 c -0.1069,0.8331 -0.267,1.2498 -0.502,1.2498 h -0.9933 c 0,0.4164 -0.1709,0.6302 -0.502,0.6302 0.0746,0.5768 0.1174,0.9187 0.1174,0.9932 -0.0428,0.673 -0.1602,1.0044 -0.3739,1.0044 l 0.1281,0.6301 v 0.8759 c 0,0.1602 -0.0853,0.2458 -0.2455,0.2458 -0.2565,-0.0856 -0.3847,-0.3314 -0.3847,-0.7478 0,-0.5876 0.0857,-0.8759 0.2563,-0.8759 -0.1706,-0.2778 -0.2563,-0.5236 -0.2563,-0.7478 v -0.7586 c 0,-0.2242 0.0857,-0.4804 0.2563,-0.7475 -0.1706,-0.267 -0.2563,-0.4807 -0.2563,-0.6304 l 0.7586,-2.2538 v -0.2455 c -0.4167,-0.3314 -0.6304,-0.5448 -0.6304,-0.6304 v -0.502 c 0.0215,-0.1602 0.1068,-0.2458 0.2565,-0.2458 h 0.2455 c 0.2458,0 0.3739,0.1709 0.3739,0.5023 h 0.1281 c 0.1817,0 0.3098,-0.2137 0.3739,-0.6304 -0.6089,0 -0.94,-0.4164 -1.004,-1.2498 -0.2458,0 -0.3739,-0.0853 -0.3739,-0.2455 v -0.1281 c 0.0215,-0.1709 0.1068,-0.2458 0.2565,-0.2458 h 0.1174 c 0.1709,0.0105 0.2565,0.0961 0.2565,0.2458 l 0.502,-0.1284 c 0.8119,0 1.3139,0.5876 1.4953,1.7518 0.1925,0 0.3526,-0.5769 0.502,-1.7518 0.5236,-0.267 1.0684,-0.9828 1.6237,-2.1257 0.235,0 0.3951,-0.4164 0.502,-1.2495 -0.1173,0 -0.2458,-0.1284 -0.3739,-0.3739 v -0.3739 l 0.1281,-0.2566 c -0.0853,0 -0.1281,-0.0425 -0.1281,-0.1281 l -0.6194,0.1281 c -0.8438,-0.4804 -1.2605,-0.8971 -1.2605,-1.2497 h -0.2458 c -0.3523,0.3954 -0.6942,0.6837 -1.004,0.8759 0,0.5023 -0.2883,1.1216 -0.8759,1.8802 -0.6622,0 -1.0041,-0.4595 -1.0041,-1.3779 0.171,-0.2778 0.2563,-0.5236 0.2563,-0.7586 -0.1706,0 -0.2563,-0.0748 -0.2563,-0.2458 v -4.7534 c 0,-0.6729 -0.4592,-1.004 -1.3779,-1.004 -0.6837,-0.0853 -1.7305,-0.1281 -3.1297,-0.1281 h -2.1257 c -0.4167,0.2137 -0.6197,0.5876 -0.6197,1.1321 z m -4.3795,0.7478 -0.1281,0.2458 v 0.6301 c 0.2458,-0.0853 0.3739,-0.3311 0.3739,-0.7478 z m -1.2603,2.7558 -0.1176,0.6197 v 0.2563 h 0.2458 c 0.1281,0 0.2457,-0.1282 0.3738,-0.3737 -0.0853,-0.1496 -0.1281,-0.3206 -0.1281,-0.5023 z m 15.5206,1.6237 h 0.2562 c 0.1709,0.0216 0.2458,0.1069 0.2458,0.2566 v 0.2454 c 0,0.171 -0.0749,0.2566 -0.2458,0.2566 h -0.2562 c -0.1602,0 -0.2458,-0.0856 -0.2458,-0.2566 v -0.2454 c 0.0215,-0.171 0.1069,-0.2566 0.2458,-0.2566 z m -14.1426,1.88 0.1281,0.7477 h 0.2457 c 0,-0.1814 0.1282,-0.4379 0.3844,-0.7477 z m -0.1177,2.4996 h 0.1177 l 0.7582,-0.1174 c 0.1605,0.267 0.2458,0.5125 0.2458,0.7478 l -0.1281,0.6301 0.1281,0.7478 c -0.3739,0.1602 -0.5874,0.3311 -0.6302,0.502 0.0641,0 0.2778,0.203 0.6302,0.6194 h 0.1281 v -0.9933 l 0.3739,-0.502 c -0.1281,0 -0.2563,-0.1284 -0.3739,-0.3739 v -0.502 c 0.1604,-0.3418 0.4167,-0.502 0.7478,-0.502 l -0.1281,-0.6304 0.3739,-0.6194 h -0.1177 c -0.502,0.4912 -0.9612,0.7478 -1.3779,0.7478 -0.502,0 -0.7478,0.0853 -0.7478,0.2455 z m 12.0172,-0.8759 h 0.1174 c 0.1709,0.0215 0.2565,0.1068 0.2565,0.2565 0,0.1601 -0.0856,0.2455 -0.2565,0.2455 h -0.1174 c -0.1709,0 -0.2565,-0.0854 -0.2565,-0.2455 0.0215,-0.1709 0.1068,-0.2565 0.2565,-0.2565 z m -10.2654,2.5103 c 0.0216,0.1602 0.0964,0.2455 0.2458,0.2455 v -0.2455 z m 14.0145,0.2455 v 0.3739 c 0.0216,0.1709 0.1069,0.2565 0.2565,0.2565 0.1602,0 0.2455,-0.0856 0.2455,-0.2565 -0.0853,-0.1602 -0.1281,-0.2883 -0.1281,-0.3739 z m -16.7703,3.1297 c 0.0856,0 0.1176,0.0428 0.1176,0.1284 0.5874,-0.2565 0.8864,-0.502 0.8864,-0.7477 l -0.1281,-0.6302 c -0.1069,0 -0.3952,0.4164 -0.8759,1.2495 z m 2.2538,0.3739 c 0.0216,0.1709 0.0961,0.2566 0.2458,0.2566 v -0.2566 z m -3.7599,0.6304 v 0.5021 h 0.502 v -0.2566 c 0,-0.1601 -0.0853,-0.2455 -0.2457,-0.2455 z m 16.7704,3.3753 0.1281,0.6304 h 0.1281 v -0.6304 z m -12.2627,0.8759 v 0.3739 h 0.1281 v -0.3739 z m 10.639,2.2541 v 0.7582 c 0.0215,0.1602 0.1068,0.2458 0.2565,0.2458 v -0.3739 l -0.1284,-0.6301 z m 0.3739,1.506 c 0,0.94 -0.1174,1.5168 -0.3739,1.7518 0.064,0.502 0.1496,0.7478 0.2565,0.7478 -0.0856,1.1534 -0.2137,2.0293 -0.3846,2.6277 0.1496,1.3351 0.3206,2.0081 0.502,2.0081 v -0.1281 c -0.0854,-1.3354 -0.1174,-2.1257 -0.1174,-2.3823 0,-0.2029 0.0746,-0.6621 0.2455,-1.3671 -0.0853,-0.3419 -0.1281,-0.6302 -0.1281,-0.8759 l 0.502,-0.3847 -0.3739,-1.3779 0.1284,-0.2455 c -0.0856,-0.1709 -0.1284,-0.2886 -0.1284,-0.3739 z m 0,7.3812 c -0.1814,1.068 -0.3952,1.8158 -0.6194,2.2538 v 0.2562 c 0.0746,0 0.3311,0.1602 0.7475,0.502 0.1709,-0.4271 0.2886,-0.6301 0.3739,-0.6301 -0.1814,-1.5916 -0.3524,-2.3819 -0.502,-2.3819 z m -0.502,4.3795 c 0.502,0.6942 0.7585,1.1962 0.7585,1.506 v 0.6302 c 0,0.267 -0.0428,0.4807 -0.1284,0.6196 0.0856,0.235 0.1284,0.8544 0.1284,1.88 h 0.1174 l 0.1281,-0.6302 v -2.2538 c 0,-0.2886 0.0428,-0.6625 0.1281,-1.1217 -0.1066,-0.267 -0.3095,-0.5661 -0.6301,-0.8759 z m -2.6278,2.5101 c 0.0213,0.1601 0.1069,0.2457 0.2563,0.2457 0,-0.1817 0.0428,-0.3526 0.1176,-0.502 h -0.1176 c -0.1707,0.0213 -0.2563,0.1066 -0.2563,0.2563 z m 5.0097,2.4996 v 0.2562 c 0.4595,-0.3419 0.7906,-0.502 1.0043,-0.502 l -0.1284,-0.6302 c -0.1281,0 -0.4164,0.2883 -0.8759,0.876 z m -4.8815,0.2562 v 0.9935 h 0.1281 v -0.9935 z m 3.1297,0.3739 v 0.7478 h 0.1284 v -0.7478 z m 18.0522,-49.9479 c 0.0856,0 0.2137,0.0428 0.3738,0.1281 0.171,0 0.2563,-0.0425 0.2563,-0.1281 7.0713,0 10.9916,0.3739 11.7607,1.1217 1.5916,1.4632 2.3819,2.8414 2.3819,4.1338 0.0856,1.2285 0.1284,2.6489 0.1284,4.2621 v 3.8773 c -0.1497,1.0788 -0.6089,1.6236 -1.3779,1.6236 l -0.6304,-0.1173 h -0.6194 c -0.8014,0 -1.5917,0.032 -2.3822,0.1173 -1.7518,0 -2.6278,-0.5768 -2.6278,-1.7518 v -4.5076 c 0,-0.4592 -0.2134,-0.7903 -0.6301,-0.9933 h -1.9976 c -0.5232,0 -1.1534,0.032 -1.8799,0.1174 -1.3779,-0.1602 -2.1682,-0.2883 -2.382,-0.3739 -0.502,0 -0.7905,0.3311 -0.8759,1.004 v 7.0073 c 0,0.3954 -0.0428,0.8118 -0.1173,1.2497 0.0745,0.3206 0.1173,0.6945 0.1173,1.1325 v 3.5036 c 0,0.4592 0.2138,0.7903 0.6302,1.004 h 0.1284 c 0.3311,0 0.8756,-0.0856 1.6234,-0.2565 0.0428,0 0.5876,0.0428 1.6237,0.1284 0.4379,-0.0856 0.6942,-0.1284 0.7585,-0.1284 0.1602,0 0.2455,0.0428 0.2455,0.1284 l 1.2498,-0.1284 h 0.6301 c 1.0789,0 1.9976,0.1284 2.7562,0.3739 0.0745,0 0.2029,-0.0425 0.3739,-0.1174 1.7943,0 3.5033,1.207 5.127,3.621 0.0856,0.4595 0.1281,0.8439 0.1281,1.1325 v 4.5076 c 0,0.1494 0.1284,1.1429 0.3739,3.0016 v 6.2595 c 0,0.6514 -0.1281,1.271 -0.3739,1.8799 l 0.1284,0.8759 v 3.6318 c 0,1.036 -1.2177,2.4568 -3.6317,4.2514 -0.3314,0.1709 -0.7906,0.2562 -1.3782,0.2562 h -6.3876 c -1.207,0 -2.5849,0.0749 -4.123,0.2458 l -0.2566,-0.1281 -0.7477,0.1281 c -0.8544,-0.0853 -1.3564,-0.1281 -1.5061,-0.1281 -0.1601,0.0853 -0.2883,0.1281 -0.3739,0.1281 -1.709,-0.5448 -3.3006,-1.8799 -4.7534,-4.0056 -0.0853,-1.2498 -0.1281,-2.1685 -0.1281,-2.7559 v -7.2638 c 0,-0.6621 0.3311,-0.9932 1.004,-0.9932 h 3.5036 c 0.2886,0 0.6625,0.0428 1.1217,0.1173 0.1069,-0.0745 0.3952,-0.1173 0.8759,-0.1173 h 0.2563 c 0.7477,0.0961 1.1216,0.4807 1.1216,1.1216 v 4.5077 c 0,1.2498 0.5021,1.8799 1.5061,1.8799 h 1.1217 c 0.1281,0 0.2562,0.1282 0.3738,0.3739 l 0.6302,-0.1281 0.502,0.502 c 0.1281,-0.3526 0.3311,-0.5981 0.6304,-0.7478 h 2.2431 c 0.1922,0 0.6089,-0.6301 1.2605,-1.8799 0.1387,0 0.8972,-0.4595 2.2539,-1.3779 v -0.3739 c -0.5876,-0.3526 -0.8759,-1.2286 -0.8759,-2.6277 -0.171,0 -0.2566,-0.5449 -0.2566,-1.6237 0.0856,-0.1709 0.1282,-0.2991 0.1282,-0.3847 -0.5233,0 -0.8116,-0.3736 -0.8759,-1.1214 0.0856,-0.4595 0.1284,-0.7905 0.1284,-1.004 -0.3419,-0.4379 -0.5449,-1.1429 -0.6305,-2.1257 l 0.1284,-0.2458 v -0.502 c -0.2349,-0.2137 -0.3954,-0.801 -0.5023,-1.7518 l -0.2562,-0.1281 h -0.1174 c -0.2137,0.1709 -0.3418,0.2455 -0.3846,0.2455 -1.5168,-0.0746 -2.4781,-0.1174 -2.8735,-0.1174 l -0.2455,0.1174 -0.2565,-0.1174 -1.7518,0.2458 c -0.0853,0 -0.2135,-0.0428 -0.3739,-0.1284 -0.4592,0.0856 -0.8331,0.1284 -1.1322,0.1284 -0.7265,0 -1.3566,-0.203 -1.8694,-0.6304 -0.3631,0.2565 -0.94,0.4594 -1.7518,0.6304 -0.8864,0 -2.2964,-1.2073 -4.2619,-3.6321 -0.171,-0.331 -0.2458,-0.7903 -0.2458,-1.3779 v -0.7475 c 0.0536,-0.7265 0.1817,-1.1109 0.3739,-1.1216 -0.0853,-2.2326 -0.1281,-3.9952 -0.1281,-5.2662 v -9.8805 c 0,-0.9828 -0.0853,-1.6557 -0.2458,-2.0083 0,-2.147 1.3354,-3.8988 4.0057,-5.2555 2.7666,-0.3311 4.1873,-0.502 4.2514,-0.502 z m 2.008,24.91 c 0.0216,0.1707 0.0964,0.2455 0.2458,0.2455 h 0.2457 c 0,-0.1173 0.0854,-0.2883 0.2563,-0.4912 v -0.3847 h -0.2563 c -0.0961,0 -0.267,0.2137 -0.4915,0.6304 z m 5.3839,9.3892 h 0.3738 v 0.1282 c 0,0.267 -0.0428,0.4807 -0.1284,0.6196 l 0.1284,0.7583 c 0,0.4379 -0.2137,0.8546 -0.6304,1.2498 l -0.1281,-0.2563 v -0.6196 c 0.2562,-0.8011 0.3847,-1.2926 0.3847,-1.5061 z m 0.3738,2.8732 h 0.2455 c 0.2671,0 0.438,0.5448 0.502,1.6345 l -0.502,0.3739 h -0.502 c -0.1814,0 -0.3098,-0.2886 -0.3739,-0.8759 0.235,-0.7478 0.438,-1.1325 0.6304,-1.1325 z m -5.3838,8.7699 c -0.2562,0.3098 -0.3739,0.5981 -0.3739,0.8759 v 0.1281 c 0.4167,-0.3419 0.7053,-0.502 0.8759,-0.502 v -0.2563 c -0.1281,0 -0.299,-0.0856 -0.502,-0.2457 z m -0.8759,1.6236 -0.1281,0.6302 c 0.3311,-0.1281 0.502,-0.2563 0.502,-0.3739 v -0.2563 z m 3.1297,0.5021 h 0.1177 c 0.1709,0 0.2562,-0.0857 0.2562,-0.2458 h -0.1281 c -0.1602,0.0108 -0.2458,0.0961 -0.2458,0.2458 z m -5.1378,1.2498 c -0.6621,-0.1602 -1.0788,-0.2458 -1.2498,-0.2458 h -0.1281 l -1.2498,0.7478 v 0.3739 c 0.1709,0.0853 0.2883,0.1281 0.3739,0.1281 0.737,-0.0853 1.1962,-0.1281 1.3779,-0.1281 0.0213,0.1709 0.1069,0.2562 0.2563,0.2562 h 0.6196 v -0.1281 c -0.0853,-0.1709 -0.1173,-0.2883 -0.1173,-0.3739 l 0.3736,-0.2563 0.8759,0.1282 0.1176,-0.2458 v -0.7583 c -0.5768,0.3419 -0.9935,0.5021 -1.2498,0.5021 z m 3.5037,-0.2458 h 0.2562 v -0.2563 c -0.1709,0.0213 -0.2562,0.1069 -0.2562,0.2563 z m -1.2498,0.2458 v 0.2562 h 0.1281 c 0.1709,0 0.2458,-0.0853 0.2458,-0.2562 z m 23.7563,-49.3178 h 5.127 c 1.2498,0 1.8799,0.9187 1.8799,2.7559 0.4167,1.4207 0.6197,2.8734 0.6197,4.3795 l -0.1174,0.2458 c 0.4164,0.7585 0.7475,2.2966 0.9933,4.6357 -0.1602,0.2671 -0.2458,0.4808 -0.2458,0.6305 0.2458,0.032 0.3739,0.3738 0.3739,0.9932 v 0.502 c -0.2883,0.502 -0.6621,0.7586 -1.1214,0.7586 h -0.2565 c -0.94,-0.3419 -1.5168,-0.502 -1.7518,-0.502 h -0.3739 c -0.1281,0 -0.2883,0.1601 -0.502,0.502 v 0.2455 c 0.0215,0.1709 0.1069,0.2457 0.2565,0.2457 h 0.4913 c 0.4592,0 1.0896,-0.0748 1.8799,-0.2457 h 0.8759 c 0,-0.3311 0.0856,-0.5021 0.2565,-0.5021 h 0.2455 c 0.267,0 0.6089,1.5917 1.0041,4.7535 0.5876,4.2834 0.8759,6.4519 0.8759,6.516 0.1496,0 0.3098,0.6621 0.5023,1.9973 -0.3314,0.5023 -0.5023,0.8759 -0.5023,1.1324 v 0.1174 c 0.4807,0 0.8974,1.5488 1.2498,4.636 -0.1282,0 -0.3739,0.2455 -0.7475,0.7475 v 0.2565 c 0.6621,0.3311 1.004,0.6622 1.004,1.0041 0.4912,3.1617 0.9079,5.5012 1.2498,7.0072 0,0.8759 0.3311,3.3755 0.9932,7.5093 v 0.3739 c 0,0.9187 -0.534,1.3779 -1.6236,1.3779 h -2.6278 c -2.6702,0 -4.0056,-0.3311 -4.0056,-1.004 -0.3951,-4.2514 -0.94,-6.3771 -1.6237,-6.3771 h -3.7599 c -0.4379,0 -0.769,1.3674 -1.004,4.1232 -0.3311,2.1683 -0.9187,3.2579 -1.7518,3.2579 -1.1217,-0.0853 -1.9548,-0.1281 -2.4996,-0.1281 h -3.3755 c -0.6729,0 -1.004,-0.3311 -1.004,-0.9936 v -0.1281 c 0.3311,-2.0081 0.5768,-4.091 0.7478,-6.2595 0.4167,-1.1537 0.7049,-2.7774 0.8759,-4.8815 0.3526,-0.502 0.6517,-1.175 0.8759,-2.0081 0.1922,0 0.3098,-0.2029 0.3739,-0.6196 -0.2671,0.1601 -0.4808,0.2457 -0.6197,0.2457 -0.0853,-0.1604 -0.1281,-0.2885 -0.1281,-0.3739 l 1.004,-7.3811 c 0.0961,-1.677 0.3098,-2.5103 0.6197,-2.5103 h 0.2562 c 0.0856,0 0.4167,0.5876 1.0041,1.7518 l -0.1282,1.7518 c 0.2458,0 0.3739,0.3846 0.3739,1.1324 h 0.1281 c 0,-0.235 0.1177,-0.4807 0.3739,-0.7478 l -0.2562,-0.3846 v -0.7475 l 0.1281,-0.2458 c -0.2029,0 -0.3311,-0.4167 -0.3739,-1.2606 0.7906,-0.1601 1.2926,-0.534 1.5061,-1.1213 v -0.1284 c -0.1494,-0.7475 -0.3203,-1.1214 -0.502,-1.1214 h -0.1282 c 0,0.1601 -0.2137,0.3739 -0.6301,0.6193 0,0.7586 -0.1177,1.1325 -0.3739,1.1325 -0.8331,-0.6945 -1.2498,-1.3567 -1.2498,-2.0084 v -0.6193 c 0.1709,-1.175 0.3311,-1.7519 0.502,-1.7519 h 0.1281 c 0.3314,0 0.5021,0.5021 0.5021,1.4953 h 0.3738 v -1.1214 c 0.0216,-0.1709 0.0961,-0.2565 0.2458,-0.2565 h 0.1281 l 0.3739,0.2565 v -1.0043 c -1.004,-0.5873 -1.506,-0.9612 -1.506,-1.1214 l -0.1177,-0.7585 c 0.0749,-0.1602 0.1177,-0.2883 0.1177,-0.3739 h 0.6301 c 0.0856,-0.1494 0.1281,-0.3095 0.1281,-0.502 v -0.1174 c -0.299,0 -0.502,-0.2565 -0.6301,-0.7585 0.1709,-1.8587 0.502,-3.653 1.004,-5.3836 l -0.1281,-0.6194 c 1.1429,-8.5135 1.9015,-12.7754 2.2538,-12.7754 0.5449,-0.1602 0.9187,-0.2458 1.1325,-0.2458 z m 4.123,9.133 v 0.502 l 0.6301,-0.1174 v -0.6304 h -0.3739 c -0.1706,0.0215 -0.2562,0.1069 -0.2562,0.2458 z m -6.5053,6.0137 v 0.2457 c 0.0216,0.171 0.1069,0.2566 0.2458,0.2566 0.1709,0 0.2563,-0.0856 0.2563,-0.2566 v -0.2457 c 0,-0.1707 -0.0854,-0.2455 -0.2563,-0.2455 -0.1602,0.0105 -0.2458,0.0961 -0.2458,0.2455 z m -2.1257,7.1356 c 0.1605,0.0213 0.2458,0.1066 0.2458,0.2455 v 0.1281 c 0,0.171 -0.0853,0.2566 -0.2458,0.2566 -0.1709,0 -0.2562,-0.0856 -0.2562,-0.2566 v -0.1281 c 0.0212,-0.1602 0.1069,-0.2455 0.2562,-0.2455 z m 7.1354,7.0073 -1.004,4.7531 0.1281,0.502 c -0.0853,0.2993 -0.1281,1.0043 -0.1281,2.1365 0.4595,0.0748 0.8334,0.1176 1.1216,0.1176 h 0.1282 c 0.4595,0 0.7478,-0.1604 0.8759,-0.5023 v -0.1173 c -0.5233,-4.5933 -0.8972,-6.8896 -1.1217,-6.8896 z m -7.0177,3.2578 0.2562,0.1281 h 0.2458 c 0,-0.064 0.0428,-0.3206 0.1281,-0.7585 -0.1068,0 -0.3098,0.2137 -0.6301,0.6304 z m -0.7478,1.9973 c 0,0.3419 -0.2458,0.5023 -0.7478,0.5023 l 0.2458,0.8759 h 0.1281 c 0,-0.3314 0.1709,-0.5768 0.502,-0.7478 h 0.502 l 0.2458,0.1282 c 0.0213,-0.171 0.1069,-0.2563 0.2563,-0.2563 -0.0854,-0.1604 -0.1282,-0.2886 -0.1282,-0.3739 l -0.6301,0.1281 c 0,-0.1709 -0.0853,-0.2565 -0.2458,-0.2565 z" style="fill:#ffffff;fill-rule:evenodd" id="path5" />
	</g>
	<path d="m 212.3887,193.4241 -9.207,51.6395 c 17.2479,3.321 28.9344,-3.5278 28.9344,-3.5278 0,0 22.641,-11.5449 15.3183,-32.2541 -7.4685,-21.122 -35.0457,-15.8576 -35.0457,-15.8576 z" style="fill:#e7b343;fill-rule:evenodd;stroke:#1b1918;stroke-width:0.5669;stroke-linecap:butt;stroke-linejoin:miter;stroke-dasharray:none" id="path6" />
	<path d="m 222.2642,201.7971 c 0,0 14.6571,-0.0668 17.7626,15.003 0,0 2.8371,14.1969 -15.2711,19.1585 0,0 10.0908,-16.6419 -2.4915,-34.1615 z" style="fill:#1b1918;fill-rule:evenodd;stroke:#1b1918;stroke-width:0.5669;stroke-linecap:butt;stroke-linejoin:miter;stroke-dasharray:none" id="path7" />
	<path d="m 211.6326,193.528 c 0,0 19.0481,8.2434 17.6442,30.0544 -1.4038,21.811 -26.0951,21.4812 -26.0951,21.4812 z" style="fill:#fd7f3e;fill-rule:evenodd;stroke:#1b1918;stroke-width:0.5669;stroke-linecap:butt;stroke-linejoin:miter;stroke-dasharray:none" id="path8" />
	<g id="Layer1002">
		<path d="m 61.1532,148.4595 c -0.608,0.1822 -1.0947,0.2052 -1.4595,0.0683 -0.3651,-0.1369 -0.5777,-0.3572 -0.6387,-0.6613 -0.0609,-0.3042 0.0227,-0.669 0.2509,-1.0948 0.2282,-0.4257 0.6463,-0.8212 1.2543,-1.186 1.1254,-0.5474 2.2125,-1.0644 3.2616,-1.5508 1.0491,-0.4867 2.1211,-0.9125 3.2159,-1.2773 1.0947,-0.3648 2.2351,-0.669 3.4208,-0.9122 1.186,-0.2435 2.4633,-0.4108 3.8319,-0.5017 2.1589,-0.0913 4.0065,0.1519 5.542,0.7296 1.5358,0.578 2.7825,1.3836 3.7403,2.4177 0.9581,1.0338 1.6574,2.2578 2.0985,3.672 0.4408,1.4139 0.6613,2.942 0.6613,4.5841 0,1.1861 -0.0989,2.4327 -0.2965,3.7404 -0.1975,1.3076 -0.494,2.6002 -0.8895,3.8772 -0.669,2.2201 -1.5965,4.4096 -2.7825,6.5687 -1.186,2.1589 -2.6229,4.1205 -4.3106,5.8842 -1.6878,1.7637 -3.6111,3.2159 -5.7702,4.3563 -2.1592,1.1403 -4.5309,1.7864 -7.1158,1.9386 h 0.0456 c -0.3648,0.0606 -0.7449,0.0912 -1.1404,0.0912 -0.3954,0 -0.8059,0 -1.2316,0 -1.2773,0 -2.5923,-0.1369 -3.9456,-0.4107 -1.3532,-0.2735 -2.5772,-0.4104 -3.672,-0.4104 -0.3041,-0.061 -0.4867,-0.2889 -0.5473,-0.6843 -0.061,-0.3952 -0.0153,-0.8059 0.1369,-1.2317 0.1519,-0.4255 0.3801,-0.7906 0.684,-1.0947 0.3041,-0.3039 0.669,-0.3952 1.0947,-0.2736 0,0.0304 0.0153,0.0457 0.0457,0.0457 h 0.1369 c 0.6386,-2.0072 1.3456,-4.303 2.1211,-6.8879 0.7753,-2.5847 1.5585,-5.1999 2.3491,-7.8458 0.7906,-2.6455 1.5432,-5.1848 2.2578,-7.6175 0.7149,-2.4327 1.3153,-4.5159 1.802,-6.2493 -1.3686,0.5171 -2.7065,1.1404 -4.0142,1.8703 z m 12.909,-3.6037 c -1.2467,0 -2.4783,0.0913 -3.6947,0.2738 0.7297,0.2432 1.1251,0.5777 1.1858,1.0035 -0.3649,1.2163 -0.7983,2.6076 -1.3,4.1737 -0.5017,1.5661 -1.0491,3.2309 -1.6421,4.9946 -0.593,1.764 -1.2087,3.5811 -1.8474,5.4511 -0.6386,1.8703 -1.2619,3.6873 -1.8703,5.451 -0.6993,2.0679 -1.3303,3.8849 -1.8929,5.451 -0.5624,1.5659 -1.0718,3.0637 -1.5279,4.4929 h 0.8665 c 1.0035,0 1.916,-0.0912 2.7369,-0.2735 1.7943,-0.3348 3.4668,-1.0038 5.0176,-2.0072 1.5508,-1.0035 2.9574,-2.2275 4.2194,-3.672 1.262,-1.4446 2.3643,-3.041 3.3072,-4.7894 0.9425,-1.7487 1.718,-3.5351 2.3261,-5.3598 v 0.0456 c 0.3651,-1.2772 0.6539,-2.5163 0.8668,-3.7176 0.2129,-1.201 0.3192,-2.3794 0.3192,-3.5351 0,-1.0947 -0.1216,-2.1211 -0.3648,-3.079 -0.2433,-0.9578 -0.6463,-1.7866 -1.2087,-2.486 -0.5627,-0.6993 -1.2926,-1.2619 -2.1895,-1.6877 -0.8972,-0.4258 -1.9996,-0.669 -3.3072,-0.7299 z m 20.1617,13.4563 c 0.8209,0.061 1.4519,0.3575 1.893,0.8895 0.4411,0.5321 0.7526,1.1631 0.9351,1.893 0.6993,-0.0303 1.3153,0.0836 1.8474,0.3422 0.532,0.2585 0.7222,0.6156 0.57,1.072 -0.0606,0.152 -0.1366,0.3572 -0.2279,0.6157 -0.0913,0.2585 -0.1672,0.4638 -0.2282,0.6157 -0.3951,0.9731 -0.7679,1.893 -1.1174,2.7598 -0.3498,0.8666 -0.631,1.6954 -0.8439,2.486 -0.2738,0.9122 -0.494,1.741 -0.6616,2.486 -0.1672,0.7449 -0.2202,1.1936 -0.1596,1.3456 0.1523,-0.0304 0.4561,-0.2282 0.9125,-0.593 0.4561,-0.3649 1.0035,-0.8666 1.6421,-1.5052 0.4561,-0.4258 0.8742,-0.9125 1.2543,-1.4599 0.3802,-0.5473 0.707,-1.0794 0.9808,-1.5964 0.3039,-0.3952 0.669,-0.6461 1.0948,-0.7526 0.4257,-0.1063 0.7982,-0.099 1.1174,0.0229 0.3195,0.1216 0.5323,0.3572 0.6386,0.707 0.1066,0.3498 0.008,0.7679 -0.2965,1.2543 -0.3954,0.4867 -0.6993,0.8972 -0.9122,1.2317 -0.2435,0.3345 -0.4943,0.6916 -0.7526,1.0717 -0.2585,0.3802 -0.5093,0.7073 -0.7528,0.9808 -1.0642,1.1557 -2.1133,2.1288 -3.1473,2.9194 -1.0338,0.7906 -1.9463,1.2011 -2.7369,1.2317 -1.0338,0.0303 -1.817,-0.1826 -2.3491,-0.6387 -0.5323,-0.4561 -0.9048,-1.0491 -1.1177,-1.779 -0.5473,0.669 -1.201,1.2393 -1.9613,1.7104 -0.7602,0.4714 -1.5814,0.7223 -2.4633,0.7529 -1.5205,0.0607 -2.5696,-0.3651 -3.1473,-1.2773 -0.5777,-0.9122 -0.8668,-2.0525 -0.8668,-3.4211 0,-1.0338 0.1219,-2.0832 0.3651,-3.1473 0.3648,-1.3686 0.9198,-2.6762 1.6648,-3.9229 0.7452,-1.2469 1.5965,-2.3417 2.5546,-3.2842 0.9578,-0.9428 1.9842,-1.6877 3.079,-2.2351 1.0947,-0.5474 2.1588,-0.8059 3.1929,-0.7756 z m -5.9754,14.5055 c 0.7906,-0.0304 1.5508,-0.5397 2.2807,-1.5282 0.7297,-0.9881 1.3836,-2.1665 1.9613,-3.5351 V 167.8 c 0.1826,-0.5474 0.3878,-1.1251 0.6157,-1.7334 0.2282,-0.608 0.4334,-1.2011 0.616,-1.779 0.2432,-0.5777 0.3648,-1.1404 0.3648,-1.6878 0,-0.1823 -0.038,-0.3421 -0.114,-0.4788 -0.0759,-0.1369 -0.2358,-0.2205 -0.479,-0.2508 -0.4258,-0.0306 -0.8895,0.1443 -1.3913,0.5244 -0.5017,0.3801 -0.9881,0.8895 -1.4595,1.5281 -0.4714,0.6387 -0.9048,1.376 -1.3,2.2125 -0.3954,0.8362 -0.6843,1.6951 -0.8668,2.577 -0.0304,0.0912 -0.076,0.2585 -0.1369,0.5017 -0.0607,0.2435 -0.129,0.517 -0.2053,0.8212 -0.0759,0.3041 -0.1442,0.6233 -0.2052,0.9578 -0.0607,0.3345 -0.0913,0.6234 -0.0913,0.8668 0,0.2736 0.0306,0.5018 0.0913,0.684 0.061,0.1826 0.1673,0.2739 0.3195,0.2739 z m 28.9652,-5.7476 c 0.0913,-0.1822 0.3042,-0.2888 0.6387,-0.3191 0.3345,-0.0304 0.6613,0 0.9805,0.0912 0.3194,0.0913 0.5856,0.2509 0.7985,0.4788 0.2129,0.2282 0.2432,0.4944 0.091,0.7982 -0.2432,0.5171 -0.5321,1.0188 -0.8666,1.5055 -0.3344,0.4865 -0.6993,0.9352 -1.0947,1.3456 -0.3954,0.4105 -0.8135,0.745 -1.2543,1.0035 -0.4411,0.2585 -0.8745,0.4028 -1.3,0.4334 -0.3954,0.0303 -0.8365,0.008 -1.3229,-0.0686 -0.4867,-0.0759 -1.0035,-0.3875 -1.5509,-0.9348 -0.1522,0.4864 -0.3041,0.9274 -0.4563,1.3226 v -0.0913 c -0.091,0.3345 -0.2583,0.7146 -0.5018,1.1404 -0.2432,0.4258 -0.5473,0.8212 -0.9122,1.186 -0.3648,0.3648 -0.7905,0.6766 -1.2773,0.9352 -0.4864,0.2585 -1.0184,0.3877 -1.5964,0.3877 -1.3076,0 -2.3947,-0.1749 -3.2613,-0.5246 -0.8668,-0.3496 -1.5661,-0.8439 -2.0985,-1.4826 -0.532,-0.6383 -0.9045,-1.3912 -1.1174,-2.2578 -0.2129,-0.8668 -0.3195,-1.7866 -0.3195,-2.7598 0,-1.4595 0.1979,-3.0027 0.5931,-4.6298 0.3954,-1.6268 0.8212,-3.1397 1.2772,-4.5386 0.1217,-0.1825 0.3192,-0.3421 0.5931,-0.479 0.2738,-0.1369 0.5777,-0.2509 0.9121,-0.3421 0.3345,-0.091 0.6843,-0.1596 1.0491,-0.2053 0.3651,-0.0456 0.7149,-0.0683 1.0494,-0.0683 0.7297,0 1.3,0.114 1.7105,0.3422 0.4104,0.2279 0.479,0.6156 0.2052,1.163 -0.1826,0.3345 -0.4181,0.8439 -0.707,1.5282 -0.2888,0.6842 -0.5853,1.4595 -0.8895,2.3264 -0.3041,0.8665 -0.5627,1.7713 -0.7755,2.7138 -0.2129,0.9429 -0.3192,1.84 -0.3192,2.6913 0,0.8515 0.1749,1.5661 0.5247,2.1441 0.3495,0.5777 0.9654,0.8818 1.8473,0.9122 0.2129,0 0.4028,-0.2129 0.5701,-0.6387 0.1672,-0.4257 0.3194,-0.9351 0.456,-1.5281 0.137,-0.593 0.2586,-1.2011 0.3651,-1.8244 0.1063,-0.6236 0.19,-1.1177 0.2509,-1.4825 0.0607,-0.2432 0.0913,-0.3802 0.0913,-0.4105 l -0.0913,-0.502 c -0.1522,-0.8512 -0.2282,-1.6724 -0.2282,-2.463 0,-0.5171 0.0457,-1.0341 0.1369,-1.5509 0.0913,-0.517 0.3042,-1.0644 0.6387,-1.6421 l -0.0913,0.1367 c 0.0607,-0.2129 0.3801,-0.4941 0.9578,-0.8439 0.578,-0.3495 1.2164,-0.6613 1.916,-0.9349 0.6993,-0.2738 1.3532,-0.479 1.9613,-0.6159 0.6083,-0.137 0.9731,-0.0987 1.0947,0.1142 l -0.2279,0.8209 0.0456,-0.0456 c -0.1219,0.4257 -0.2738,0.9958 -0.4563,1.7107 -0.1823,0.7146 -0.3496,1.4672 -0.5018,2.2578 -0.1519,0.7906 -0.2735,1.5585 -0.3648,2.3034 -0.0913,0.7452 -0.1063,1.3609 -0.0456,1.8476 0.0609,0.3952 0.1902,0.7146 0.3877,0.9579 0.1976,0.2432 0.4335,0.3648 0.707,0.3648 0.517,0 1.0341,-0.4105 1.5508,-1.2317 0,-0.1519 0.0307,-0.2585 0.0913,-0.3192 0.061,-0.0609 0.1216,-0.1519 0.1826,-0.2738 z m 9.5335,-8.7579 c 0.8209,0.061 1.4519,0.3575 1.893,0.8895 0.4411,0.5321 0.7526,1.1631 0.9351,1.893 0.6993,-0.0303 1.3153,0.0836 1.8474,0.3422 0.532,0.2585 0.7222,0.6156 0.57,1.072 -0.0606,0.152 -0.1366,0.3572 -0.2279,0.6157 -0.0913,0.2585 -0.1672,0.4638 -0.2282,0.6157 -0.3951,0.9731 -0.7679,1.893 -1.1174,2.7598 -0.3498,0.8666 -0.631,1.6954 -0.8439,2.486 -0.2738,0.9122 -0.494,1.741 -0.6616,2.486 -0.1672,0.7449 -0.2202,1.1936 -0.1596,1.3456 0.1523,-0.0304 0.4561,-0.2282 0.9125,-0.593 0.4561,-0.3649 1.0035,-0.8666 1.6421,-1.5052 0.4561,-0.4258 0.8742,-0.9125 1.2544,-1.4599 0.3801,-0.5473 0.7069,-1.0794 0.9807,-1.5964 0.3039,-0.3952 0.669,-0.6461 1.0948,-0.7526 0.4257,-0.1063 0.7982,-0.099 1.1174,0.0229 0.3195,0.1216 0.5323,0.3572 0.6386,0.707 0.1066,0.3498 0.008,0.7679 -0.2965,1.2543 -0.3954,0.4867 -0.6993,0.8972 -0.9121,1.2317 -0.2435,0.3345 -0.4944,0.6916 -0.7526,1.0717 -0.2586,0.3802 -0.5094,0.7073 -0.7529,0.9808 -1.0642,1.1557 -2.1133,2.1288 -3.1473,2.9194 -1.0338,0.7906 -1.9463,1.2011 -2.7369,1.2317 -1.0338,0.0303 -1.817,-0.1826 -2.3491,-0.6387 -0.5323,-0.4561 -0.9048,-1.0491 -1.1177,-1.779 -0.5473,0.669 -1.201,1.2393 -1.9612,1.7104 -0.7603,0.4714 -1.5815,0.7223 -2.4634,0.7529 -1.5205,0.0607 -2.5696,-0.3651 -3.1473,-1.2773 -0.5777,-0.9122 -0.8668,-2.0525 -0.8668,-3.4211 0,-1.0338 0.1219,-2.0832 0.3651,-3.1473 0.3648,-1.3686 0.9198,-2.6762 1.6648,-3.9229 0.7452,-1.2469 1.5965,-2.3417 2.5546,-3.2842 0.9578,-0.9428 1.9842,-1.6877 3.079,-2.2351 1.0947,-0.5474 2.1588,-0.8059 3.1929,-0.7756 z m -5.9754,14.5055 c 0.7906,-0.0304 1.5508,-0.5397 2.2807,-1.5282 0.7297,-0.9881 1.3836,-2.1665 1.9613,-3.5351 V 167.8 c 0.1826,-0.5474 0.3878,-1.1251 0.6157,-1.7334 0.2282,-0.608 0.4334,-1.2011 0.616,-1.779 0.2432,-0.5777 0.3648,-1.1404 0.3648,-1.6878 0,-0.1823 -0.038,-0.3421 -0.114,-0.4788 -0.0759,-0.1369 -0.2358,-0.2205 -0.479,-0.2508 -0.4258,-0.0306 -0.8895,0.1443 -1.3913,0.5244 -0.5017,0.3801 -0.9881,0.8895 -1.4595,1.5281 -0.4714,0.6387 -0.9048,1.376 -1.3,2.2125 -0.3954,0.8362 -0.6843,1.6951 -0.8668,2.577 -0.0303,0.0912 -0.076,0.2585 -0.1369,0.5017 -0.0607,0.2435 -0.129,0.517 -0.2053,0.8212 -0.0759,0.3041 -0.1442,0.6233 -0.2052,0.9578 -0.0606,0.3345 -0.0913,0.6234 -0.0913,0.8668 0,0.2736 0.0307,0.5018 0.0913,0.684 0.061,0.1826 0.1673,0.2739 0.3195,0.2739 z m 22.1686,-0.2282 c 0,-0.608 0.023,-1.2314 0.0683,-1.87 0.0457,-0.6387 0.1293,-1.2926 0.2512,-1.9616 -0.7603,1.186 -1.4979,2.3797 -2.2125,3.5807 -0.7146,1.2013 -1.4215,2.41 -2.1211,3.6264 0,0.0913 -0.007,0.1825 -0.0227,0.2738 -0.0153,0.0913 -0.023,0.1519 -0.023,0.1826 -0.3345,0.1216 -0.7602,0.1672 -1.277,0.1366 -0.517,-0.0303 -1.0111,-0.114 -1.4825,-0.2509 -0.4714,-0.1369 -0.8668,-0.3268 -1.186,-0.57 -0.3192,-0.2432 -0.4485,-0.5324 -0.3878,-0.8669 l 0.6843,-3.649 c 0.0303,-0.3042 -0.061,-0.5017 -0.2738,-0.593 -0.2126,-0.0913 -0.4485,-0.1596 -0.707,-0.2052 -0.2585,-0.0457 -0.4941,-0.114 -0.707,-0.2053 -0.2128,-0.0912 -0.2888,-0.2888 -0.2281,-0.593 -0.1217,-0.1825 -0.1443,-0.4257 -0.0684,-0.7299 0.076,-0.3041 0.1596,-0.57 0.2509,-0.7982 0.0913,-0.2282 0.1596,-0.3878 0.2052,-0.4791 0.0457,-0.091 -0.0226,0 -0.2052,0.2738 0.0609,-0.1522 0.1446,-0.2888 0.2509,-0.4104 0.1066,-0.1219 0.1902,-0.2585 0.2508,-0.4108 0.2129,-0.3648 0.4638,-0.7982 0.7526,-1.2999 0.2889,-0.5018 0.5854,-1.0111 0.8895,-1.5282 0.3042,-0.5167 0.6007,-1.0185 0.8896,-1.5052 0.2888,-0.4864 0.5247,-0.9122 0.7069,-1.2773 0.1826,-0.2128 0.5247,-0.3951 1.0264,-0.5473 0.5018,-0.152 1.0265,-0.2659 1.5738,-0.3419 0.5474,-0.0762 1.0491,-0.1066 1.5052,-0.0913 0.4561,0.0151 0.73,0.0837 0.8212,0.2053 -0.3347,1.0338 -0.6236,2.1438 -0.8668,3.3298 -0.2432,1.186 -0.4864,2.4174 -0.7299,3.6947 0.7908,-1.4596 1.5891,-2.9344 2.395,-4.4246 0.8056,-1.4902 1.5585,-2.8738 2.2578,-4.1508 l 0.8665,-0.4564 -0.0453,0.0457 c 0.2126,-0.1216 0.4637,-0.2279 0.7526,-0.3192 0.2888,-0.0913 0.5777,-0.1749 0.8665,-0.2509 0.2889,-0.0759 0.5627,-0.1369 0.8212,-0.1825 0.2585,-0.0457 0.4638,-0.0683 0.6157,-0.0683 0.517,0 0.8819,0.0759 1.0947,0.2279 0.2129,0.1522 0.2432,0.441 0.0913,0.8668 -0.0609,0.3648 -0.1446,0.745 -0.2509,1.1404 -0.1065,0.3951 -0.1902,0.7753 -0.2508,1.1404 -0.1826,0.7905 -0.3955,1.6801 -0.6387,2.6682 -0.2432,0.9885 -0.4637,1.9843 -0.6613,2.988 -0.1978,1.0035 -0.3651,1.9766 -0.5017,2.9191 -0.1369,0.9428 -0.2055,1.7487 -0.2055,2.4177 0,0.7906 0.0456,1.2467 0.1369,1.3686 0.2738,-0.0306 0.6613,-0.2585 1.1633,-0.6843 0.5017,-0.4258 1.0185,-0.9352 1.5509,-1.5282 0.532,-0.593 1.0414,-1.2163 1.5281,-1.8703 0.4864,-0.6536 0.8666,-1.2087 1.1404,-1.6648 l -0.0457,0.0457 c 0.091,-0.2129 0.3039,-0.3269 0.6384,-0.3422 0.3348,-0.0153 0.6616,0.038 0.9808,0.1596 0.3195,0.1216 0.5854,0.2965 0.7982,0.5247 0.2129,0.2279 0.2586,0.4638 0.1369,0.707 -0.3648,0.6993 -0.8971,1.5355 -1.5964,2.5086 -0.6996,0.9732 -1.4749,1.9007 -2.3264,2.7825 -0.8515,0.8819 -1.7484,1.6421 -2.6912,2.2808 -0.9428,0.6386 -1.8703,0.9581 -2.7825,0.9581 -0.6387,0.0303 -1.1784,-0.0763 -1.6195,-0.3195 -0.4407,-0.2432 -0.7982,-0.5853 -1.0717,-1.0264 -0.2739,-0.4408 -0.4714,-0.9655 -0.593,-1.5735 -0.1216,-0.6083 -0.1826,-1.2773 -0.1826,-2.0072 z m 30.2426,-3.6491 c -0.8822,1.3989 -1.7564,2.6533 -2.6229,3.7633 -0.8669,1.1098 -1.7334,2.1135 -2.6003,3.0104 -0.8665,0.8972 -1.7331,1.7257 -2.5999,2.486 -0.8665,0.7603 -1.7561,1.4749 -2.6685,2.1438 l -0.7753,1.5055 0.0456,-0.0456 c -0.6996,1.5508 -1.2849,2.7595 -1.7563,3.6263 -0.4711,0.8666 -0.9045,1.5585 -1.3,2.0756 -0.1519,0.2129 -0.3571,0.4484 -0.6157,0.7069 -0.2585,0.2586 -0.555,0.4865 -0.8895,0.6843 -0.3345,0.1976 -0.6919,0.3419 -1.072,0.4332 -0.3802,0.0912 -0.783,0.0762 -1.2087,-0.0457 -0.4258,-0.1216 -0.7679,-0.3192 -1.0265,-0.593 -0.2585,-0.2735 -0.4561,-0.5853 -0.593,-0.9349 -0.1366,-0.3498 -0.2279,-0.7072 -0.2735,-1.072 -0.0456,-0.3648 -0.0533,-0.7146 -0.023,-1.0491 0.1522,-1.5205 1.0797,-2.9498 2.7825,-4.2877 0.6083,-0.4564 1.1784,-0.8819 1.7107,-1.2773 0.5321,-0.3954 1.0568,-0.7603 1.5738,-1.0947 l 1.1401,-3.6947 c 0.061,-0.1522 0.0913,-0.2585 0.0913,-0.3195 0,-0.0606 0,-0.076 0,-0.0456 0,-0.0607 0.0153,-0.1216 0.0456,-0.1823 -0.608,0.6384 -1.186,1.0641 -1.7334,1.277 -0.5473,0.2129 -1.2619,0.3345 -2.1438,0.3651 -1.5205,0.0607 -2.5696,-0.3651 -3.1473,-1.2773 -0.5777,-0.9122 -0.8668,-2.0525 -0.8668,-3.4211 0,-1.0338 0.1218,-2.0832 0.3651,-3.1473 0.3648,-1.3686 0.9198,-2.6762 1.6647,-3.9229 0.7453,-1.2469 1.5965,-2.3417 2.5546,-3.2842 0.9579,-0.9428 1.9843,-1.6877 3.079,-2.2351 1.0948,-0.5474 2.1589,-0.8059 3.193,-0.7756 0.8818,0.0304 1.5585,0.3648 2.0299,1.0035 0.4714,0.6386 0.7982,1.3686 0.9805,2.1895 0.5779,-0.091 1.072,-0.0607 1.4825,0.0912 0.4107,0.1523 0.6463,0.4258 0.7072,0.8212 -0.4257,2.1589 -0.9048,4.2194 -1.4369,6.1807 -0.5323,1.9616 -1.1936,3.9455 -1.9842,5.9528 0.8818,-0.7906 1.7561,-1.6878 2.6226,-2.6913 0.8668,-1.0034 1.7564,-2.2504 2.6685,-3.7406 0.1216,-0.2128 0.3575,-0.3344 0.707,-0.3648 0.3498,-0.0303 0.6919,0 1.0264,0.0913 0.3345,0.0913 0.6007,0.2356 0.7983,0.4334 0.1975,0.1976 0.2205,0.4181 0.0686,0.6613 z m -16.695,17.3793 c 0.091,0.0606 0.2432,-0.1446 0.4561,-0.616 0.2129,-0.4711 0.4714,-1.1024 0.7753,-1.893 -0.2432,0.1522 -0.4788,0.3498 -0.707,0.593 -0.2281,0.2432 -0.4104,0.4867 -0.5473,0.7299 -0.1369,0.2433 -0.2129,0.4788 -0.2282,0.707 -0.015,0.2282 0.0686,0.4031 0.2511,0.5247 z m 1.277,-13.3651 c 0.3955,0 0.8289,-0.1596 1.3,-0.4791 0.4714,-0.3191 0.9505,-0.7449 1.4369,-1.2773 0.4867,-0.532 0.9351,-1.163 1.3456,-1.8929 0.4107,-0.7297 0.7529,-1.5052 1.0264,-2.3264 v 0.0456 c 0.0913,-0.3039 0.1749,-0.6004 0.2509,-0.8892 0.076,-0.2892 0.1596,-0.6766 0.2509,-1.1634 0,0 -0.0913,-0.0606 -0.2736,-0.1825 -0.0913,-0.0607 -0.1672,-0.1216 -0.2282,-0.1823 0.152,-0.0609 0.2585,-0.1142 0.3192,-0.1596 0.0609,-0.0456 0.1219,-0.0836 0.1826,-0.1142 l 0.0912,-0.0456 0.1369,-0.5474 v 0.0913 c 0.0607,-0.4258 0.038,-0.8516 -0.0686,-1.2773 -0.1063,-0.4255 -0.3571,-0.6537 -0.7526,-0.684 -0.456,-0.0306 -0.9425,0.1596 -1.4595,0.57 -0.5171,0.4105 -1.0111,0.9505 -1.4825,1.6195 -0.4714,0.6689 -0.9049,1.4215 -1.3,2.2577 -0.3954,0.8363 -0.7146,1.6651 -0.9578,2.486 -0.1522,0.5171 -0.2815,1.0112 -0.3878,1.4826 -0.1066,0.4714 -0.1596,0.9198 -0.1596,1.3456 0,0.3954 0.0607,0.7146 0.1823,0.9578 0.1216,0.2435 0.3041,0.3651 0.5473,0.3651 z m 18.6565,0.1823 c 0.5474,0 1.0948,-0.1596 1.6422,-0.4788 0.5473,-0.3195 1.0947,-0.7299 1.6421,-1.2317 0.5473,-0.5017 1.0717,-1.072 1.5735,-1.7104 0.502,-0.6386 0.9657,-1.2926 1.3912,-1.9616 0.1219,-0.2129 0.3498,-0.3192 0.6843,-0.3192 0.3345,0 0.6616,0.0607 0.9808,0.1823 0.3192,0.1216 0.57,0.2889 0.7526,0.5017 0.1825,0.2129 0.2129,0.4258 0.0913,0.6387 -0.5474,0.8819 -1.1784,1.779 -1.893,2.6912 -0.7146,0.9125 -1.4825,1.741 -2.3037,2.4786 -0.8209,0.7373 -1.6951,1.3456 -2.6226,1.8244 -0.9275,0.4791 -1.878,0.7146 -2.8511,0.7146 -1.9157,0.0306 -3.3222,-0.4331 -4.2194,-1.3912 -0.8969,-0.9579 -1.3456,-2.2578 -1.3456,-3.8999 0,-0.6387 0.0762,-1.3533 0.2282,-2.1439 0.1519,-0.7906 0.3801,-1.5661 0.6843,-2.3264 0.3345,-0.8818 0.7982,-1.817 1.3912,-2.8051 0.593,-0.9885 1.2847,-1.8933 2.0753,-2.7142 0.7908,-0.8212 1.665,-1.5052 2.6229,-2.0526 0.9581,-0.5473 1.9692,-0.8212 3.0333,-0.8212 0.9731,0 1.6498,0.2812 2.0299,0.8439 0.3801,0.555 0.5703,1.2317 0.5703,2.0222 0,0.5777 -0.0762,1.1404 -0.2282,1.7031 -0.1519,0.5624 -0.3041,1.0261 -0.4561,1.3912 -0.7299,1.5432 -1.6421,2.9648 -2.7368,4.2724 -1.0947,1.3003 -2.5393,2.5469 -4.3333,3.7253 0.3038,0.5777 0.8362,0.8666 1.5964,0.8666 z m -1.5964,-5.1999 c -0.061,0.2129 -0.1293,0.4637 -0.2055,0.7526 -0.076,0.2888 -0.1293,0.555 -0.1596,0.7982 1.034,-0.8212 1.8853,-1.6651 2.5546,-2.5316 0.6689,-0.8666 1.2619,-1.9386 1.7787,-3.2159 0.0306,-0.0913 0.0989,-0.2432 0.2055,-0.4561 0.1063,-0.2129 0.2052,-0.4258 0.2965,-0.6387 0.091,-0.2128 0.1596,-0.4028 0.2052,-0.57 0.0457,-0.1672 0.038,-0.2509 -0.0229,-0.2509 -0.4865,0.0304 -0.9732,0.2889 -1.4596,0.7753 -0.4867,0.4867 -0.9428,1.0644 -1.3686,1.7334 -0.4257,0.669 -0.7982,1.3456 -1.1174,2.0299 -0.3194,0.6843 -0.555,1.224 -0.7069,1.6194 z m 17.1966,8.3474 c -0.9428,0 -1.7334,-0.1065 -2.372,-0.3194 -0.6384,-0.2129 -1.1554,-0.5094 -1.5508,-0.8895 -0.3952,-0.3802 -0.6767,-0.8363 -0.8439,-1.3683 -0.1673,-0.5321 -0.2509,-1.1024 -0.2509,-1.7107 0,-0.6384 0.076,-1.2923 0.2282,-1.9613 0.152,-0.669 0.3572,-1.338 0.6157,-2.0069 0.2585,-0.6693 0.5397,-1.3077 0.8439,-1.916 0.3041,-0.6083 0.6083,-1.1707 0.9122,-1.6877 -0.5777,-0.152 -1.0795,-0.3498 -1.5052,-0.593 l -0.0913,0.1369 c -0.1823,0.3041 -0.3952,0.6613 -0.6387,1.0718 -0.2432,0.4107 -0.5473,0.9657 -0.9121,1.665 l -1.5052,2.2808 c -0.2129,0.2735 -0.4941,0.4714 -0.8439,0.593 -0.3498,0.1216 -0.6766,0.1519 -0.9808,0.0913 -0.3042,-0.061 -0.5321,-0.2206 -0.6843,-0.4791 -0.1519,-0.2585 -0.1216,-0.6613 0.0913,-1.2087 0.0609,-0.1522 0.1446,-0.3041 0.2509,-0.4561 0.1065,-0.1522 0.2052,-0.3041 0.2965,-0.4564 0.1522,-0.2735 0.403,-0.6993 0.7526,-1.277 0.3498,-0.5779 0.6689,-1.171 0.9581,-1.779 0.2888,-0.6083 0.5094,-1.1557 0.6613,-1.6421 0.1519,-0.4867 0.1063,-0.7756 -0.1369,-0.8668 -0.4561,-1.0338 -0.5171,-1.855 -0.1823,-2.4631 0.3345,-0.6083 0.8056,-1.0264 1.4139,-1.2543 0.6083,-0.2282 1.262,-0.2738 1.9613,-0.1369 0.6996,0.1369 1.186,0.4181 1.4599,0.8439 0.1216,0.2735 0.3268,0.5473 0.6157,0.8209 0.2888,0.2738 0.5853,0.5247 0.8895,0.7526 0.3041,0.2282 0.5853,0.4107 0.8438,0.5474 0.2586,0.1369 0.4335,0.2205 0.5247,0.2508 0.7297,0.1826 1.2847,0.4031 1.6648,0.6616 0.3801,0.2586 0.631,0.5321 0.7526,0.8209 0.1216,0.2889 0.1446,0.5854 0.0686,0.8896 -0.0762,0.3041 -0.2205,0.6083 -0.4334,0.9124 l 0.0456,-0.0456 c -0.3648,0.6386 -0.7222,1.3076 -1.072,2.0069 -0.3495,0.6993 -0.6614,1.3913 -0.9352,2.0755 -0.2735,0.6843 -0.4941,1.338 -0.6613,1.9613 -0.1672,0.6237 -0.2509,1.1784 -0.2509,1.6651 0,0.7906 0.3498,1.1707 1.0491,1.1404 0.4258,0 0.8742,-0.1446 1.3456,-0.4334 0.4714,-0.2889 0.9428,-0.669 1.4142,-1.1404 0.4714,-0.4714 0.9352,-1.0188 1.3913,-1.6421 0.4561,-0.6234 0.8969,-1.2697 1.3226,-1.9386 v 0.0456 c 0.1219,-0.2129 0.3422,-0.3192 0.6616,-0.3192 0.3192,0 0.6387,0.053 0.9579,0.1596 0.3191,0.1063 0.57,0.2659 0.7526,0.4788 0.1825,0.2129 0.2128,0.4258 0.0912,0.6386 -0.517,0.8819 -1.0947,1.7637 -1.7333,2.6456 -0.6387,0.8821 -1.338,1.6804 -2.0982,2.395 -0.7603,0.7146 -1.5662,1.3 -2.4177,1.7561 -0.8515,0.4561 -1.7637,0.6842 -2.7369,0.6842 z m -7.1158,-7.1614 -0.0456,0.0456 0.0913,-0.1825 c 0,0.0303 -0.008,0.0533 -0.023,0.0683 -0.015,0.0153 -0.0227,0.038 -0.0227,0.0686 z m 15.8738,-7.344 c 0.1216,-0.1826 0.4484,-0.3042 0.9807,-0.3648 0.5321,-0.061 1.0871,-0.061 1.6648,0 0.578,0.0606 1.0871,0.1672 1.5282,0.3192 0.4411,0.1519 0.6157,0.3191 0.5247,0.5017 -0.1826,0.517 -0.3728,1.0264 -0.5704,1.5281 -0.1975,0.5018 -0.4028,1.0112 -0.6156,1.5282 -0.2435,0.6384 -0.4867,1.2694 -0.73,1.893 -0.2432,0.6233 -0.4561,1.239 -0.6386,1.8473 -0.3042,0.9122 -0.5474,1.7411 -0.7299,2.486 -0.1823,0.745 -0.2126,1.1784 -0.091,1.3 0.4561,-0.061 1.2923,-0.745 2.5086,-2.0526 0.3649,-0.3345 0.6996,-0.7072 1.0035,-1.1177 0.3042,-0.4104 0.593,-0.8286 0.8668,-1.2543 -0.0609,0.0609 -0.0456,0.0153 0.0457,-0.1369 0.0913,-0.152 0.1976,-0.3192 0.3192,-0.5018 0.1519,-0.1825 0.3877,-0.2735 0.7069,-0.2735 0.3195,0 0.6236,0.0683 0.9125,0.2052 0.2888,0.1366 0.5244,0.3192 0.707,0.5474 0.1825,0.2279 0.2128,0.4637 0.0912,0.7069 -0.0609,0.061 -0.1142,0.1446 -0.1596,0.2509 -0.0456,0.1063 -0.0989,0.1902 -0.1598,0.2509 h 0.0456 c -0.2432,0.4257 -0.5474,0.8818 -0.9122,1.3685 -0.3648,0.4865 -0.7299,0.9426 -1.0947,1.3683 -1.0341,1.2164 -2.0602,2.2048 -3.079,2.9651 -1.0188,0.7602 -1.9233,1.1554 -2.7142,1.186 -1.3683,0.0303 -2.3264,-0.3498 -2.8738,-1.1404 -0.5473,-0.7909 -0.8209,-1.7943 -0.8209,-3.0107 0,-0.608 0.0607,-1.2466 0.1826,-1.9156 0.1216,-0.6693 0.2582,-1.3076 0.4104,-1.916 0.1216,-0.4561 0.2889,-0.9578 0.5018,-1.5052 0.2129,-0.5473 0.4334,-1.087 0.6613,-1.6194 0.2282,-0.5321 0.4561,-1.0491 0.6843,-1.5508 0.2282,-0.5018 0.4181,-0.9352 0.57,-1.3 v 0.0456 l 0.2282,-0.5017 z m 1.5052,-6.7966 c 0.2738,-0.7603 0.7525,-1.376 1.4368,-1.8474 0.6843,-0.4714 1.3763,-0.6766 2.0756,-0.6159 0.7905,0.0609 1.3836,0.4107 1.779,1.0493 0.3951,0.6384 0.4104,1.3533 0.0456,2.1439 v -0.0456 c -0.2738,0.7299 -0.7526,1.3379 -1.4369,1.8246 -0.6842,0.4864 -1.3912,0.6993 -2.1211,0.6384 -0.8819,-0.0607 -1.4902,-0.4028 -1.8247,-1.0262 -0.3345,-0.6233 -0.3192,-1.3456 0.0457,-2.1668 z" style="fill:#e7b343;fill-rule:evenodd" id="path9" />
		<path d="m 224.5297,176.4666 c -1.8246,-0.0606 -3.2615,-0.5624 -4.3106,-1.5052 -1.0491,-0.9425 -1.6041,-2.3111 -1.6648,-4.1051 -0.1216,-0.1219 -0.2129,-0.2512 -0.2738,-0.3878 -0.0607,-0.1369 -0.0607,-0.3421 0,-0.616 0.2129,-0.3951 0.4031,-0.8059 0.5703,-1.2313 0.1672,-0.4258 0.3572,-0.8365 0.5701,-1.2317 0.2128,-0.3954 0.479,-0.7602 0.7982,-1.0947 0.3195,-0.3345 0.7376,-0.593 1.2543,-0.7756 0.5171,-0.6993 0.9961,-1.3683 1.4369,-2.0069 0.4411,-0.6387 0.8135,-1.2013 1.1177,-1.6878 0,-0.6386 0.1063,-1.2013 0.3192,-1.6877 0.2129,-0.4867 0.5627,-0.9048 1.0491,-1.2543 0.4867,-0.3498 1.1327,-0.6007 1.9386,-0.7529 0.8059,-0.152 1.8323,-0.2129 3.079,-0.1823 -0.4561,0.9122 -0.7676,1.6878 -0.9349,2.3264 -0.1675,0.6384 -0.2511,1.2163 -0.2511,1.7331 0,0.8821 0.1142,1.7487 0.3421,2.6002 0.2282,0.8516 0.4944,1.6572 0.7983,2.4174 0.3344,0.8819 0.6006,1.7107 0.7982,2.486 0.1978,0.7756 0.1902,1.5131 -0.0227,2.2124 v 0.0457 c -0.0303,0.0303 -0.0456,0.0759 -0.0456,0.1369 -0.0304,0.1216 -0.038,0.1823 -0.0227,0.1823 0.015,0 0.038,-0.0227 0.0683,-0.0684 0.0303,-0.0456 0.061,-0.0989 0.0913,-0.1596 0.0303,-0.0609 0.0456,-0.0912 0.0456,-0.0912 0.6387,-0.5474 1.2847,-1.1784 1.9386,-1.893 0.6537,-0.7146 1.2697,-1.4216 1.8474,-2.1212 0.1519,-0.1825 0.3954,-0.2661 0.7299,-0.2508 0.3345,0.0153 0.646,0.0836 0.9349,0.2052 0.2891,0.1216 0.5247,0.2815 0.7072,0.479 0.1823,0.1976 0.1976,0.4029 0.0456,0.6157 -1.7333,2.524 -3.5883,4.4476 -5.5649,5.7702 -1.9766,1.323 -3.9229,1.9843 -5.8388,1.9843 -0.2736,0 -0.5397,0 -0.7983,0 -0.2585,0 -0.5094,-0.0303 -0.7526,-0.0913 z m 6.5685,-4.5612 c 0.1216,-0.1826 0.1825,-0.2282 0.1825,-0.1369 z m -7.0246,-5.565 c -0.517,0.669 -0.9884,1.3227 -1.4142,1.9613 -0.4257,0.6386 -0.9122,1.3076 -1.4595,2.0072 -0.061,0.4255 -0.0153,0.8209 0.1369,1.1857 0.1519,0.3651 0.3648,0.6767 0.6386,0.9352 0.2736,0.2585 0.5928,0.4561 0.9579,0.593 0.3648,0.1369 0.7296,0.2052 1.0947,0.2052 0.4561,-0.0303 0.8362,-0.2508 1.1404,-0.6613 0.3041,-0.4104 0.4408,-0.9504 0.4104,-1.6194 0.0304,-0.3039 0,-0.6993 -0.0912,-1.186 -0.0913,-0.4865 -0.2129,-1.0035 -0.3649,-1.5509 -0.1825,-0.7602 -0.3498,-1.5964 -0.5017,-2.5086 z m -15.3493,-10.8108 c 0.5094,-0.3877 0.9958,-0.7905 1.4443,-1.1936 0.4563,-0.4105 0.8591,-0.8209 1.2166,-1.2467 0.3572,-0.4258 0.6613,-0.8592 0.9122,-1.3076 0.2509,-0.4485 0.4408,-0.8972 0.5627,-1.3609 -0.5704,-0.3725 -1.0494,-0.6917 -1.4446,-0.9502 -0.3878,-0.2585 -0.7069,-0.5094 -0.9578,-0.7603 -0.2511,-0.2508 -0.4334,-0.517 -0.5474,-0.7982 -0.1142,-0.2889 -0.1749,-0.6463 -0.1749,-1.0721 0,-0.2585 0.0607,-0.5244 0.1749,-0.8059 0.114,-0.2735 0.2812,-0.532 0.5018,-0.7676 0.2279,-0.2358 0.5017,-0.4334 0.8209,-0.5856 0.3268,-0.1596 0.6996,-0.2356 1.1177,-0.2356 0.6383,0 1.1783,0.114 1.6191,0.3345 0.4488,0.2205 0.8136,0.5321 1.0948,0.9199 0.2888,0.3954 0.4943,0.8668 0.6233,1.4218 0.1293,0.5548 0.1902,1.1707 0.1902,1.8397 0,0.9882 -0.2129,1.893 -0.631,2.7065 -0.4181,0.8209 -0.9275,1.5662 -1.5358,2.2275 -0.608,0.669 -1.2467,1.262 -1.9156,1.779 -0.669,0.5094 -1.262,0.9502 -1.7791,1.315 z" style="fill:#e7b343;fill-rule:evenodd" id="path10" />
	</g>
</svg>
