<svg xmlns="http://www.w3.org/2000/svg" width="501.57" height="501.57" viewBox="0 0 501.57 501.57">
  <g id="onam2" transform="translate(1.498 1.498)">
    <g id="Group_41" data-name="Group 41" transform="translate(0.502 0.502)">
      <g id="Group_39" data-name="Group 39">
        <path id="Path_505" data-name="Path 505" d="M96.2,72.463h0a20.184,20.184,0,0,0,0-28.569L81.921,29.61,67.636,43.894a20.184,20.184,0,0,0,0,28.569h0A20.184,20.184,0,0,0,96.2,72.463Z" transform="translate(281.167 133.441)" fill="none" stroke="#efaa25" stroke-miterlimit="10" stroke-width="4"/>
        <path id="Path_506" data-name="Path 506" d="M71.711,69.679l28.569-28.569L85.995,26.826a20.184,20.184,0,0,0-28.569,0h0a20.184,20.184,0,0,0,0,28.569Z" transform="translate(234.184 93.372)" fill="none" stroke="#efaa25" stroke-miterlimit="10" stroke-width="4"/>
        <path id="Path_507" data-name="Path 507" d="M50.01,78.579,62.726,91.294a22.449,22.449,0,0,0,31.706,0l12.716-12.716L78.579,50.01,50.01,78.579Z" transform="translate(227.316 227.316)" fill="none" stroke="#efaa25" stroke-miterlimit="10" stroke-width="4"/>
        <path id="Path_508" data-name="Path 508" d="M60.21,60.74,72.926,73.456a22.449,22.449,0,0,0,31.706,0L117.347,60.74,104.631,48.024a22.449,22.449,0,0,0-31.706,0Z" transform="translate(274.253 188.017)" fill="none" stroke="#efaa25" stroke-miterlimit="10" stroke-width="4"/>
        <path id="Path_509" data-name="Path 509" d="M48.024,104.631,60.74,117.347l12.716-12.716a22.449,22.449,0,0,0,0-31.706L60.74,60.21,48.024,72.926A22.449,22.449,0,0,0,48.024,104.631Z" transform="translate(188.017 274.253)" fill="none" stroke="#efaa25" stroke-miterlimit="10" stroke-width="4"/>
        <rect id="Rectangle_43" data-name="Rectangle 43" width="40.388" height="40.388" transform="translate(48.759 248.783) rotate(-45)" fill="none" stroke="#efaa25" stroke-miterlimit="10" stroke-width="4"/>
        <path id="Path_510" data-name="Path 510" d="M26.826,57.426h0a20.184,20.184,0,0,0,0,28.569l14.284,14.284L55.395,85.995a20.184,20.184,0,0,0,0-28.569h0a20.184,20.184,0,0,0-28.569,0Z" transform="translate(93.372 234.184)" fill="none" stroke="#efaa25" stroke-miterlimit="10" stroke-width="4"/>
        <rect id="Rectangle_44" data-name="Rectangle 44" width="40.388" height="40.388" transform="translate(220.226 77.319) rotate(-45)" fill="none" stroke="#efaa25" stroke-miterlimit="10" stroke-width="4"/>
        <path id="Path_511" data-name="Path 511" d="M72.463,26.826h0a20.184,20.184,0,0,0-28.569,0L29.61,41.111,43.894,55.395a20.184,20.184,0,0,0,28.569,0h0a20.184,20.184,0,0,0,0-28.569Z" transform="translate(133.441 93.372)" fill="none" stroke="#efaa25" stroke-miterlimit="10" stroke-width="4"/>
        <path id="Path_512" data-name="Path 512" d="M69.679,58.179,41.111,29.61,26.826,43.894a20.184,20.184,0,0,0,0,28.569h0a20.184,20.184,0,0,0,28.569,0Z" transform="translate(93.372 133.441)" fill="none" stroke="#efaa25" stroke-miterlimit="10" stroke-width="4"/>
        <path id="Path_513" data-name="Path 513" d="M58.179,39.81,29.61,68.379,58.179,96.947,70.894,84.231a22.449,22.449,0,0,0,0-31.706Z" transform="translate(133.441 180.378)" fill="none" stroke="#efaa25" stroke-miterlimit="10" stroke-width="4"/>
        <path id="Path_514" data-name="Path 514" d="M58.224,84.231,70.94,96.947,99.508,68.379,70.94,39.81,58.224,52.526a22.449,22.449,0,0,0,0,31.706Z" transform="translate(234.954 180.378)" fill="none" stroke="#efaa25" stroke-miterlimit="10" stroke-width="4"/>
        <path id="Path_515" data-name="Path 515" d="M39.81,70.94,68.379,99.508,96.947,70.94,84.231,58.224a22.449,22.449,0,0,0-31.706,0Z" transform="translate(180.378 234.954)" fill="none" stroke="#efaa25" stroke-miterlimit="10" stroke-width="4"/>
        <rect id="Rectangle_45" data-name="Rectangle 45" width="40.388" height="40.388" rx="3.61" transform="translate(220.252 248.757) rotate(-45)" fill="none" stroke="#efaa25" stroke-miterlimit="10" stroke-width="4"/>
        <path id="Path_516" data-name="Path 516" d="M96.947,58.179,68.379,29.61,39.81,58.179,52.526,70.894a22.449,22.449,0,0,0,31.706,0L96.947,58.179Z" transform="translate(180.378 133.441)" fill="none" stroke="#efaa25" stroke-miterlimit="10" stroke-width="4"/>
        <path id="Path_517" data-name="Path 517" d="M32.126,48.024,19.41,60.74,32.126,73.456a22.449,22.449,0,0,0,31.706,0L76.547,60.74,63.831,48.024A22.449,22.449,0,0,0,32.126,48.024Z" transform="translate(86.504 188.017)" fill="none" stroke="#efaa25" stroke-miterlimit="10" stroke-width="4"/>
        <path id="Path_518" data-name="Path 518" d="M78.579,86.747,91.294,74.031a22.449,22.449,0,0,0,0-31.706L78.579,29.61,50.01,58.179Z" transform="translate(227.316 133.441)" fill="none" stroke="#efaa25" stroke-miterlimit="10" stroke-width="4"/>
        <path id="Path_519" data-name="Path 519" d="M50.54,50.01,37.824,62.726a22.449,22.449,0,0,0,0,31.706L50.54,107.147,79.108,78.579,50.54,50.01Z" transform="translate(141.08 227.316)" fill="none" stroke="#efaa25" stroke-miterlimit="10" stroke-width="4"/>
        <path id="Path_520" data-name="Path 520" d="M73.456,32.126,60.74,19.41,48.024,32.126a22.449,22.449,0,0,0,0,31.706L60.74,76.547,73.456,63.831A22.449,22.449,0,0,0,73.456,32.126Z" transform="translate(188.017 86.504)" fill="none" stroke="#efaa25" stroke-miterlimit="10" stroke-width="4"/>
        <path id="Path_521" data-name="Path 521" d="M86.747,50.54,74.031,37.824a22.449,22.449,0,0,0-31.706,0L29.61,50.54,58.179,79.108Z" transform="translate(133.441 141.08)" fill="none" stroke="#efaa25" stroke-miterlimit="10" stroke-width="4"/>
        <path id="Path_522" data-name="Path 522" d="M41.111,60.21,26.826,74.494a20.184,20.184,0,0,0,0,28.569h0a20.184,20.184,0,0,0,28.569,0L69.679,88.779Z" transform="translate(93.372 274.253)" fill="none" stroke="#efaa25" stroke-miterlimit="10" stroke-width="4"/>
        <path id="Path_523" data-name="Path 523" d="M30.911,50.01,16.626,64.294a20.184,20.184,0,0,0,0,28.569h0a20.184,20.184,0,0,0,28.569,0h0a20.184,20.184,0,0,0,0-28.569Z" transform="translate(46.435 227.316)" fill="none" stroke="#efaa25" stroke-miterlimit="10" stroke-width="4"/>
        <path id="Path_524" data-name="Path 524" d="M37.026,77.836h0a20.184,20.184,0,0,0,0,28.569h0a20.184,20.184,0,0,0,28.569,0L79.879,92.121,65.595,77.836a20.184,20.184,0,0,0-28.569,0Z" transform="translate(140.309 328.104)" fill="none" stroke="#efaa25" stroke-miterlimit="10" stroke-width="4"/>
        <rect id="Rectangle_46" data-name="Rectangle 46" width="40.388" height="40.388" transform="translate(220.239 420.211) rotate(-45)" fill="none" stroke="#efaa25" stroke-miterlimit="10" stroke-width="4"/>
        <path id="Path_525" data-name="Path 525" d="M45.195,37.026h0a20.184,20.184,0,0,0-28.569,0h0a20.184,20.184,0,0,0,0,28.569L30.911,79.879,45.195,65.595A20.184,20.184,0,0,0,45.195,37.026Z" transform="translate(46.435 140.309)" fill="none" stroke="#efaa25" stroke-miterlimit="10" stroke-width="4"/>
        <path id="Path_526" data-name="Path 526" d="M6.426,47.226h0a20.184,20.184,0,0,0,0,28.569h0a20.184,20.184,0,0,0,28.569,0L49.279,61.511,34.995,47.226A20.184,20.184,0,0,0,6.426,47.226Z" transform="translate(-0.503 187.246)" fill="none" stroke="#efaa25" stroke-miterlimit="10" stroke-width="4"/>
        <path id="Path_527" data-name="Path 527" d="M77.836,92.863h0a20.184,20.184,0,0,0,28.569,0h0a20.184,20.184,0,0,0,0-28.569L92.121,50.01,77.836,64.294a20.184,20.184,0,0,0,0,28.569Z" transform="translate(328.104 227.316)" fill="none" stroke="#efaa25" stroke-miterlimit="10" stroke-width="4"/>
        <path id="Path_528" data-name="Path 528" d="M94.9,47.226,80.62,61.511,94.9,75.795a20.184,20.184,0,0,0,28.569,0h0a20.184,20.184,0,0,0,0-28.569h0A20.184,20.184,0,0,0,94.9,47.226Z" transform="translate(368.173 187.246)" fill="none" stroke="#efaa25" stroke-miterlimit="10" stroke-width="4"/>
        <path id="Path_529" data-name="Path 529" d="M50.01,92.121,64.294,106.4a20.184,20.184,0,0,0,28.569,0h0a20.184,20.184,0,0,0,0-28.569h0a20.184,20.184,0,0,0-28.569,0L50.01,92.121Z" transform="translate(227.316 328.104)" fill="none" stroke="#efaa25" stroke-miterlimit="10" stroke-width="4"/>
        <path id="Path_530" data-name="Path 530" d="M47.226,123.473h0a20.184,20.184,0,0,0,28.569,0h0a20.184,20.184,0,0,0,0-28.569L61.511,80.62,47.226,94.9A20.184,20.184,0,0,0,47.226,123.473Z" transform="translate(187.246 368.173)" fill="none" stroke="#efaa25" stroke-miterlimit="10" stroke-width="4"/>
        <path id="Path_531" data-name="Path 531" d="M60.21,88.789l14.284,14.284a20.184,20.184,0,0,0,28.569,0h0a20.184,20.184,0,0,0,0-28.569L88.779,60.22,60.21,88.789Z" transform="translate(274.253 274.299)" fill="none" stroke="#efaa25" stroke-miterlimit="10" stroke-width="4"/>
        <path id="Path_532" data-name="Path 532" d="M92.863,45.195h0a20.184,20.184,0,0,0,0-28.569h0a20.184,20.184,0,0,0-28.569,0L50.01,30.911,64.294,45.195A20.184,20.184,0,0,0,92.863,45.195Z" transform="translate(227.316 46.435)" fill="none" stroke="#efaa25" stroke-miterlimit="10" stroke-width="4"/>
        <path id="Path_533" data-name="Path 533" d="M60.21,71.711l28.569,28.569,14.284-14.284a20.184,20.184,0,0,0,0-28.569h0a20.184,20.184,0,0,0-28.569,0L60.21,71.711Z" transform="translate(274.253 234.184)" fill="none" stroke="#efaa25" stroke-miterlimit="10" stroke-width="4"/>
        <path id="Path_534" data-name="Path 534" d="M92.121,79.879,106.4,65.595a20.184,20.184,0,0,0,0-28.569h0a20.184,20.184,0,0,0-28.569,0h0a20.184,20.184,0,0,0,0,28.569L92.121,79.879Z" transform="translate(328.104 140.309)" fill="none" stroke="#efaa25" stroke-miterlimit="10" stroke-width="4"/>
        <rect id="Rectangle_47" data-name="Rectangle 47" width="40.388" height="40.388" transform="translate(391.651 248.771) rotate(-45)" fill="none" stroke="#efaa25" stroke-miterlimit="10" stroke-width="4"/>
        <path id="Path_535" data-name="Path 535" d="M57.426,96.2h0a20.184,20.184,0,0,0,28.569,0l14.284-14.284L85.995,67.636a20.184,20.184,0,0,0-28.569,0h0A20.184,20.184,0,0,0,57.426,96.2Z" transform="translate(234.184 281.167)" fill="none" stroke="#efaa25" stroke-miterlimit="10" stroke-width="4"/>
        <path id="Path_536" data-name="Path 536" d="M88.789,69.679l14.284-14.284a20.184,20.184,0,0,0,0-28.569h0a20.184,20.184,0,0,0-28.569,0L60.22,41.111,88.789,69.679Z" transform="translate(274.299 93.372)" fill="none" stroke="#efaa25" stroke-miterlimit="10" stroke-width="4"/>
        <path id="Path_537" data-name="Path 537" d="M75.795,6.426h0a20.184,20.184,0,0,0-28.569,0h0a20.184,20.184,0,0,0,0,28.569L61.511,49.279,75.795,34.995A20.184,20.184,0,0,0,75.795,6.426Z" transform="translate(187.246 -0.503)" fill="none" stroke="#efaa25" stroke-miterlimit="10" stroke-width="4"/>
        <path id="Path_538" data-name="Path 538" d="M79.879,30.911,65.595,16.626a20.184,20.184,0,0,0-28.569,0h0a20.184,20.184,0,0,0,0,28.569h0a20.184,20.184,0,0,0,28.569,0Z" transform="translate(140.309 46.435)" fill="none" stroke="#efaa25" stroke-miterlimit="10" stroke-width="4"/>
        <path id="Path_539" data-name="Path 539" d="M69.679,41.111,55.395,26.826a20.184,20.184,0,0,0-28.569,0h0a20.184,20.184,0,0,0,0,28.569L41.111,69.679Z" transform="translate(93.372 93.372)" fill="none" stroke="#efaa25" stroke-miterlimit="10" stroke-width="4"/>
        <path id="Path_540" data-name="Path 540" d="M58.179,60.21,29.61,88.779l14.284,14.284a20.184,20.184,0,0,0,28.569,0h0a20.184,20.184,0,0,0,0-28.569L58.179,60.21Z" transform="translate(133.441 274.253)" fill="none" stroke="#efaa25" stroke-miterlimit="10" stroke-width="4"/>
      </g>
      <g id="Group_40" data-name="Group 40" transform="translate(15.279 15.279)">
        <circle id="Ellipse_95" data-name="Ellipse 95" cx="4.929" cy="4.929" r="4.929" transform="translate(228.549 228.549)" fill="#efaa25"/>
        <circle id="Ellipse_96" data-name="Ellipse 96" cx="4.929" cy="4.929" r="4.929" transform="translate(285.686 228.549)" fill="#efaa25"/>
        <circle id="Ellipse_97" data-name="Ellipse 97" cx="4.929" cy="4.929" r="4.929" transform="translate(228.549 285.686)" fill="#efaa25"/>
        <circle id="Ellipse_98" data-name="Ellipse 98" cx="4.929" cy="4.929" r="4.929" transform="translate(171.412 228.549)" fill="#efaa25"/>
        <circle id="Ellipse_99" data-name="Ellipse 99" cx="4.929" cy="4.929" r="4.929" transform="translate(114.274 171.412)" fill="#efaa25"/>
        <circle id="Ellipse_100" data-name="Ellipse 100" cx="4.929" cy="4.929" r="4.929" transform="translate(57.137 228.549)" fill="#efaa25"/>
        <circle id="Ellipse_101" data-name="Ellipse 101" cx="4.929" cy="4.929" r="4.929" transform="translate(285.686 342.879)" fill="#efaa25"/>
        <circle id="Ellipse_102" data-name="Ellipse 102" cx="4.929" cy="4.929" r="4.929" transform="translate(228.549 400.017)" fill="#efaa25"/>
        <circle id="Ellipse_103" data-name="Ellipse 103" cx="4.929" cy="4.929" r="4.929" transform="translate(171.412 342.879)" fill="#efaa25"/>
        <circle id="Ellipse_104" data-name="Ellipse 104" cx="4.929" cy="4.929" r="4.929" transform="translate(114.274 285.686)" fill="#efaa25"/>
        <circle id="Ellipse_105" data-name="Ellipse 105" cx="4.929" cy="4.929" r="4.929" transform="translate(228.549 171.412)" fill="#efaa25"/>
        <circle id="Ellipse_106" data-name="Ellipse 106" cx="4.929" cy="4.929" r="4.929" transform="translate(285.686 114.274)" fill="#efaa25"/>
        <circle id="Ellipse_107" data-name="Ellipse 107" cx="4.929" cy="4.929" r="4.929" transform="translate(342.879 171.412)" fill="#efaa25"/>
        <circle id="Ellipse_108" data-name="Ellipse 108" cx="4.929" cy="4.929" r="4.929" transform="translate(400.017 228.549)" fill="#efaa25"/>
        <circle id="Ellipse_109" data-name="Ellipse 109" cx="4.929" cy="4.929" r="4.929" transform="translate(342.879 285.686)" fill="#efaa25"/>
        <circle id="Ellipse_110" data-name="Ellipse 110" cx="4.929" cy="4.929" r="4.929" transform="translate(228.549 114.274)" fill="#efaa25"/>
        <circle id="Ellipse_111" data-name="Ellipse 111" cx="4.929" cy="4.929" r="4.929" transform="translate(285.686 171.412)" fill="#efaa25"/>
        <circle id="Ellipse_112" data-name="Ellipse 112" cx="4.929" cy="4.929" r="4.929" transform="translate(342.879 228.549)" fill="#efaa25"/>
        <circle id="Ellipse_113" data-name="Ellipse 113" cx="4.929" cy="4.929" r="4.929" transform="translate(171.412 114.274)" fill="#efaa25"/>
        <circle id="Ellipse_114" data-name="Ellipse 114" cx="4.929" cy="4.929" r="4.929" transform="translate(228.549 57.137)" fill="#efaa25"/>
        <circle id="Ellipse_115" data-name="Ellipse 115" cx="4.929" cy="4.929" r="4.929" transform="translate(171.412 57.137)" fill="#efaa25"/>
        <circle id="Ellipse_116" data-name="Ellipse 116" cx="4.929" cy="4.929" r="4.929" transform="translate(228.549)" fill="#efaa25"/>
        <circle id="Ellipse_117" data-name="Ellipse 117" cx="4.929" cy="4.929" r="4.929" transform="translate(285.686 57.137)" fill="#efaa25"/>
        <circle id="Ellipse_118" data-name="Ellipse 118" cx="4.929" cy="4.929" r="4.929" transform="translate(342.879 114.274)" fill="#efaa25"/>
        <circle id="Ellipse_119" data-name="Ellipse 119" cx="4.929" cy="4.929" r="4.929" transform="translate(400.017 171.412)" fill="#efaa25"/>
        <circle id="Ellipse_120" data-name="Ellipse 120" cx="4.929" cy="4.929" r="4.929" transform="translate(114.274 114.274)" fill="#efaa25"/>
        <circle id="Ellipse_121" data-name="Ellipse 121" cx="4.929" cy="4.929" r="4.929" transform="translate(57.137 171.412)" fill="#efaa25"/>
        <circle id="Ellipse_122" data-name="Ellipse 122" cx="4.929" cy="4.929" r="4.929" transform="translate(0 228.549)" fill="#efaa25"/>
        <circle id="Ellipse_123" data-name="Ellipse 123" cx="4.929" cy="4.929" r="4.929" transform="translate(57.137 285.686)" fill="#efaa25"/>
        <circle id="Ellipse_124" data-name="Ellipse 124" cx="4.929" cy="4.929" r="4.929" transform="translate(114.274 228.549)" fill="#efaa25"/>
        <circle id="Ellipse_125" data-name="Ellipse 125" cx="4.929" cy="4.929" r="4.929" transform="translate(171.412 171.412)" fill="#efaa25"/>
        <circle id="Ellipse_126" data-name="Ellipse 126" cx="4.929" cy="4.929" r="4.929" transform="translate(114.274 342.879)" fill="#efaa25"/>
        <circle id="Ellipse_127" data-name="Ellipse 127" cx="4.929" cy="4.929" r="4.929" transform="translate(171.412 400.017)" fill="#efaa25"/>
        <circle id="Ellipse_128" data-name="Ellipse 128" cx="4.929" cy="4.929" r="4.929" transform="translate(228.549 342.879)" fill="#efaa25"/>
        <circle id="Ellipse_129" data-name="Ellipse 129" cx="4.929" cy="4.929" r="4.929" transform="translate(171.412 285.686)" fill="#efaa25"/>
        <circle id="Ellipse_130" data-name="Ellipse 130" cx="4.929" cy="4.929" r="4.929" transform="translate(285.686 285.686)" fill="#efaa25"/>
        <circle id="Ellipse_131" data-name="Ellipse 131" cx="4.929" cy="4.929" r="4.929" transform="translate(228.549 457.154)" fill="#efaa25"/>
        <circle id="Ellipse_132" data-name="Ellipse 132" cx="4.929" cy="4.929" r="4.929" transform="translate(285.686 400.017)" fill="#efaa25"/>
        <circle id="Ellipse_133" data-name="Ellipse 133" cx="4.929" cy="4.929" r="4.929" transform="translate(342.879 342.879)" fill="#efaa25"/>
        <circle id="Ellipse_134" data-name="Ellipse 134" cx="4.929" cy="4.929" r="4.929" transform="translate(400.017 285.686)" fill="#efaa25"/>
        <circle id="Ellipse_135" data-name="Ellipse 135" cx="4.929" cy="4.929" r="4.929" transform="translate(457.154 228.549)" fill="#efaa25"/>
      </g>
    </g>
  </g>
</svg>
