<svg xmlns="http://www.w3.org/2000/svg" width="258.798" height="258.798" viewBox="0 0 258.798 258.798">
  <g id="onam1" transform="translate(2.19 2.19)">
    <g id="Group_25" data-name="Group 25" transform="translate(0.31 0.31)">
      <rect id="Rectangle_31" data-name="Rectangle 31" width="50.743" height="50.743" transform="translate(152.229 152.229)" fill="none" stroke="#26631d" stroke-miterlimit="10" stroke-width="5"/>
      <rect id="Rectangle_32" data-name="Rectangle 32" width="50.743" height="50.743" transform="translate(101.486 152.229)" fill="none" stroke="#26631d" stroke-miterlimit="10" stroke-width="5"/>
      <path id="Path_444" data-name="Path 444" d="M24.72,63.253H50.091A25.366,25.366,0,0,0,75.463,37.881h0A25.366,25.366,0,0,0,50.091,12.51H24.72Z" transform="translate(178.335 88.976)" fill="none" stroke="#26631d" stroke-miterlimit="10" stroke-width="5"/>
      <rect id="Rectangle_33" data-name="Rectangle 33" width="50.743" height="50.743" transform="translate(50.743 152.229)" fill="none" stroke="#26631d" stroke-miterlimit="10" stroke-width="5"/>
      <path id="Path_445" data-name="Path 445" d="M75.463,25.681h0A25.366,25.366,0,0,0,50.091.31h0A25.366,25.366,0,0,0,24.72,25.681V51.053H50.091A25.366,25.366,0,0,0,75.463,25.681Z" transform="translate(178.335 -0.31)" fill="none" stroke="#26631d" stroke-miterlimit="10" stroke-width="5"/>
      <rect id="Rectangle_34" data-name="Rectangle 34" width="50.743" height="50.743" transform="translate(50.743 101.486)" fill="none" stroke="#26631d" stroke-miterlimit="10" stroke-width="5"/>
      <rect id="Rectangle_35" data-name="Rectangle 35" width="50.743" height="50.743" transform="translate(152.229 101.486)" fill="none" stroke="#26631d" stroke-miterlimit="10" stroke-width="5"/>
      <rect id="Rectangle_36" data-name="Rectangle 36" width="50.743" height="50.743" transform="translate(152.229 50.743)" fill="none" stroke="#26631d" stroke-miterlimit="10" stroke-width="5"/>
      <rect id="Rectangle_37" data-name="Rectangle 37" width="50.743" height="50.743" transform="translate(101.486 50.743)" fill="none" stroke="#26631d" stroke-miterlimit="10" stroke-width="5"/>
      <rect id="Rectangle_38" data-name="Rectangle 38" width="50.743" height="50.743" transform="translate(50.743 50.743)" fill="none" stroke="#26631d" stroke-miterlimit="10" stroke-width="5"/>
      <rect id="Rectangle_39" data-name="Rectangle 39" width="50.743" height="50.743" transform="translate(101.486 101.486)" fill="none" stroke="#26631d" stroke-miterlimit="10" stroke-width="5"/>
      <path id="Path_446" data-name="Path 446" d="M12.51,24.72V50.091A25.366,25.366,0,0,0,37.881,75.463h0A25.366,25.366,0,0,0,63.253,50.091V24.72Z" transform="translate(88.976 178.335)" fill="none" stroke="#26631d" stroke-miterlimit="10" stroke-width="5"/>
      <path id="Path_447" data-name="Path 447" d="M.31,50.091h0A25.366,25.366,0,0,0,25.681,75.463h0A25.366,25.366,0,0,0,51.053,50.091V24.72H25.681A25.366,25.366,0,0,0,.31,50.091Z" transform="translate(-0.31 178.335)" fill="none" stroke="#26631d" stroke-miterlimit="10" stroke-width="5"/>
      <path id="Path_448" data-name="Path 448" d="M50.091,24.72H24.72V50.091A25.366,25.366,0,0,0,50.091,75.463h0A25.366,25.366,0,0,0,75.463,50.091h0A25.366,25.366,0,0,0,50.091,24.72Z" transform="translate(178.335 178.335)" fill="none" stroke="#26631d" stroke-miterlimit="10" stroke-width="5"/>
      <path id="Path_449" data-name="Path 449" d="M63.253,51.053V25.681A25.366,25.366,0,0,0,37.881.31h0A25.366,25.366,0,0,0,12.51,25.681V51.053Z" transform="translate(88.976 -0.31)" fill="none" stroke="#26631d" stroke-miterlimit="10" stroke-width="5"/>
      <path id="Path_450" data-name="Path 450" d="M51.053,12.51H25.681A25.366,25.366,0,0,0,.31,37.881h0A25.366,25.366,0,0,0,25.681,63.253H51.053Z" transform="translate(-0.31 88.976)" fill="none" stroke="#26631d" stroke-miterlimit="10" stroke-width="5"/>
      <path id="Path_451" data-name="Path 451" d="M25.681.31h0A25.366,25.366,0,0,0,.31,25.681h0A25.366,25.366,0,0,0,25.681,51.053H51.053V25.681A25.366,25.366,0,0,0,25.681.31Z" transform="translate(-0.31 -0.31)" fill="none" stroke="#26631d" stroke-miterlimit="10" stroke-width="5"/>
    </g>
    <g id="Group_26" data-name="Group 26" transform="translate(19.692 19.692)">
      <circle id="Ellipse_17" data-name="Ellipse 17" cx="5.989" cy="5.989" r="5.989" transform="translate(101.486 101.486)" fill="#26631d"/>
      <circle id="Ellipse_18" data-name="Ellipse 18" cx="5.989" cy="5.989" r="5.989" transform="translate(152.312 101.486)" fill="#26631d"/>
      <circle id="Ellipse_19" data-name="Ellipse 19" cx="5.989" cy="5.989" r="5.989" transform="translate(203.055 101.486)" fill="#26631d"/>
      <circle id="Ellipse_20" data-name="Ellipse 20" cx="5.989" cy="5.989" r="5.989" transform="translate(101.486 152.312)" fill="#26631d"/>
      <circle id="Ellipse_21" data-name="Ellipse 21" cx="5.989" cy="5.989" r="5.989" transform="translate(152.312 152.312)" fill="#26631d"/>
      <circle id="Ellipse_22" data-name="Ellipse 22" cx="5.989" cy="5.989" r="5.989" transform="translate(101.486 203.055)" fill="#26631d"/>
      <circle id="Ellipse_23" data-name="Ellipse 23" cx="5.989" cy="5.989" r="5.989" transform="translate(50.743 101.486)" fill="#26631d"/>
      <circle id="Ellipse_24" data-name="Ellipse 24" cx="5.989" cy="5.989" r="5.989" transform="translate(50.743 152.312)" fill="#26631d"/>
      <circle id="Ellipse_25" data-name="Ellipse 25" cx="5.989" cy="5.989" r="5.989" transform="translate(0 101.486)" fill="#26631d"/>
      <circle id="Ellipse_26" data-name="Ellipse 26" cx="5.989" cy="5.989" r="5.989" transform="translate(50.743 50.743)" fill="#26631d"/>
      <circle id="Ellipse_27" data-name="Ellipse 27" cx="5.989" cy="5.989" r="5.989" transform="translate(101.486 50.743)" fill="#26631d"/>
      <circle id="Ellipse_28" data-name="Ellipse 28" cx="5.989" cy="5.989" r="5.989" transform="translate(152.312 50.743)" fill="#26631d"/>
      <circle id="Ellipse_29" data-name="Ellipse 29" cx="5.989" cy="5.989" r="5.989" transform="translate(203.055)" fill="#26631d"/>
      <circle id="Ellipse_30" data-name="Ellipse 30" cx="5.989" cy="5.989" r="5.989" transform="translate(101.486)" fill="#26631d"/>
      <circle id="Ellipse_31" data-name="Ellipse 31" cx="5.989" cy="5.989" r="5.989" fill="#26631d"/>
      <circle id="Ellipse_32" data-name="Ellipse 32" cx="5.989" cy="5.989" r="5.989" transform="translate(0 203.055)" fill="#26631d"/>
      <circle id="Ellipse_33" data-name="Ellipse 33" cx="5.989" cy="5.989" r="5.989" transform="translate(203.055 203.055)" fill="#26631d"/>
    </g>
  </g>
</svg>
